<svg width="1440" height="385" viewBox="0 0 1440 385" fill="none" xmlns="http://www.w3.org/2000/svg">
<path d="M1113.3 334.432C1090.99 328.699 1072.4 339.528 1057.52 347.809C1051.33 350.994 1026.54 365.645 1046.37 366.282C1063.1 366.919 1077.36 366.282 1094.09 364.371C1106.49 362.46 1123.22 361.186 1134.37 357.364C1156.69 349.72 1126.94 338.891 1115.16 335.069C1114.54 334.432 1113.92 334.432 1113.3 334.432Z" fill="url(#paint0_radial_601_2)"/>
<path opacity="0.6" d="M1099.05 335.706C1098.43 335.706 1097.81 335.706 1097.19 335.706C1095.95 335.706 1094.09 336.343 1092.85 336.98C1082.93 338.891 1074.26 343.987 1066.82 347.172C1059.38 350.994 1051.95 355.453 1048.23 359.912C1046.37 360.549 1045.75 361.824 1047.61 361.824C1053.19 363.735 1061.86 363.098 1069.92 362.46C1074.26 352.268 1084.17 343.987 1099.05 335.706Z" fill="url(#paint1_radial_601_2)"/>
<path d="M1372.36 275.189C1359.35 272.004 1347.57 278.374 1337.65 283.47C1333.94 285.381 1317.2 294.3 1329.6 294.937C1339.51 295.574 1348.81 294.937 1358.73 293.663C1366.16 292.389 1376.7 291.752 1383.52 289.203C1397.77 284.107 1380.42 277.737 1372.98 275.189H1372.36Z" fill="url(#paint2_radial_601_2)"/>
<path opacity="0.6" d="M1363.06 275.825C1363.06 275.825 1362.44 275.825 1361.82 275.825C1361.21 275.825 1359.97 276.462 1358.73 276.462C1352.53 277.736 1346.95 280.921 1341.99 282.832C1337.03 284.743 1332.08 287.928 1329.6 291.113C1328.36 291.75 1327.74 292.387 1328.98 292.387C1332.7 293.662 1337.65 293.025 1342.61 293.025C1346.95 286.654 1353.77 280.921 1363.06 275.825Z" fill="url(#paint3_radial_601_2)"/>
<path d="M1362.44 360.549C1348.81 357.364 1336.41 363.734 1325.88 368.83C1322.16 370.741 1304.81 380.296 1317.82 380.933C1328.36 381.57 1337.65 380.933 1348.81 379.659C1356.87 378.385 1367.4 377.748 1374.84 375.2C1389.71 370.104 1371.12 363.097 1363.68 361.186C1363.68 360.549 1363.06 360.549 1362.44 360.549Z" fill="url(#paint4_radial_601_2)"/>
<path opacity="0.6" d="M1353.15 361.185C1353.15 361.185 1352.53 361.185 1351.91 361.185C1350.67 361.185 1350.05 361.822 1348.81 361.822C1342.61 363.096 1336.41 366.281 1331.46 368.192C1326.5 370.74 1321.54 373.288 1318.44 376.473C1317.2 377.11 1316.58 377.747 1317.82 377.747C1321.54 379.021 1326.5 378.384 1332.08 378.384C1336.41 372.014 1343.85 366.918 1353.15 361.185Z" fill="url(#paint5_radial_601_2)"/>
<path d="M402.442 327.424C393.146 322.965 382.61 326.15 373.934 329.336C370.835 330.61 355.961 335.069 365.257 337.617C373.314 339.528 380.131 340.165 388.188 340.802C394.385 340.802 402.442 341.439 408.64 340.802C420.415 338.891 408.64 331.247 403.682 328.699C403.062 327.425 403.062 327.424 402.442 327.424Z" fill="url(#paint6_radial_601_2)"/>
<path opacity="0.6" d="M395.625 326.786H395.005C394.386 326.786 393.766 326.786 392.526 326.786C387.568 326.786 382.61 328.697 378.272 329.334C373.934 330.608 369.595 331.882 367.116 333.793C366.496 333.793 365.877 334.43 366.496 335.067C368.976 336.341 372.694 336.978 377.032 336.978C380.751 332.519 387.568 329.334 395.625 326.786Z" fill="url(#paint7_radial_601_2)"/>
<path d="M7.65757 365.009C-2.25854 360.55 -12.1746 364.372 -20.2315 366.92C-23.3303 368.194 -36.9649 372.653 -27.6686 374.563C-19.6117 376.474 -12.7944 377.111 -4.11782 377.111C2.07975 377.111 10.1366 377.748 15.7144 377.111C26.87 375.2 13.8551 368.193 8.89709 365.646C8.27733 365.009 7.65757 365.009 7.65757 365.009Z" fill="url(#paint8_radial_601_2)"/>
<path opacity="0.6" d="M0.840063 364.371H0.220318C-0.399439 364.371 -1.0192 364.371 -2.25872 364.371C-7.21676 364.371 -11.555 366.282 -15.8933 366.919C-19.6119 368.193 -23.9502 369.467 -26.4292 371.378C-27.0489 371.378 -27.6687 372.015 -27.049 372.015C-24.5699 373.289 -20.2316 373.926 -16.5131 373.926C-12.7946 370.104 -7.21676 366.919 0.840063 364.371Z" fill="url(#paint9_radial_601_2)"/>
<path d="M643.528 311.499C636.091 307.677 628.034 310.862 620.597 312.773C617.498 313.41 605.722 317.232 613.16 319.143C619.357 320.417 624.935 321.054 631.133 321.691C636.091 321.691 642.288 322.328 647.246 321.691C656.543 320.417 647.866 314.047 643.528 311.499C643.528 312.136 643.528 311.499 643.528 311.499Z" fill="url(#paint10_radial_601_2)"/>
<path opacity="0.6" d="M637.95 310.861H637.33C636.71 310.861 636.09 310.861 635.471 310.861C631.752 310.861 627.414 312.135 624.315 313.409C621.216 314.046 617.498 315.32 615.019 317.231C614.399 317.231 613.779 317.868 614.399 317.868C616.258 319.142 619.357 319.142 622.456 319.779C625.554 315.957 631.132 313.409 637.95 310.861Z" fill="url(#paint11_radial_601_2)"/>
<path d="M308.859 271.368C300.802 267.546 292.745 270.731 285.928 272.642C283.449 273.279 271.674 277.738 279.111 279.012C285.308 280.286 290.886 281.56 297.703 281.56C302.662 281.56 309.479 282.197 313.817 281.56C323.113 280.286 313.197 273.916 309.479 271.368H308.859Z" fill="url(#paint12_radial_601_2)"/>
<path opacity="0.6" d="M303.281 270.729H302.662C302.042 270.729 301.422 270.729 300.802 270.729C297.084 270.729 292.745 272.003 289.647 273.277C286.548 273.914 282.829 275.826 280.35 277.1C279.731 277.1 279.111 277.737 279.731 277.737C281.59 279.011 284.689 279.011 288.407 279.648C291.506 275.826 296.464 273.278 303.281 270.729Z" fill="url(#paint13_radial_601_2)"/>
<path d="M115.495 299.396C110.537 296.848 105.579 298.759 101.241 300.033C99.3815 300.67 92.5642 303.218 97.5222 303.855C101.241 304.492 104.959 305.129 109.298 305.129C112.396 305.129 116.735 305.766 119.214 305.129C124.791 305.129 118.594 301.307 115.495 299.396C115.495 300.033 115.495 300.033 115.495 299.396Z" fill="url(#paint14_radial_601_2)"/>
<path opacity="0.6" d="M111.777 299.395C111.157 299.395 110.537 299.395 109.917 299.395C107.438 299.395 104.959 300.032 103.1 300.669C101.241 301.306 98.7618 301.943 97.5223 303.217C96.9026 303.217 96.9026 303.217 96.9026 303.854C98.1421 304.491 100.001 304.491 102.48 305.128C104.959 302.58 108.058 300.669 111.777 299.395Z" fill="url(#paint15_radial_601_2)"/>
<path d="M963.941 247.161C959.603 244.613 954.025 246.524 949.067 247.798C947.208 248.435 939.151 250.983 943.489 252.257C947.208 252.894 950.926 253.531 954.645 253.531C957.744 253.531 961.462 254.168 964.561 253.531C971.378 252.894 966.42 249.072 963.941 247.161C963.941 247.798 963.941 247.798 963.941 247.161Z" fill="url(#paint16_radial_601_2)"/>
<path opacity="0.6" d="M960.222 247.16C959.603 247.16 958.983 247.16 958.363 247.16C955.884 247.16 953.405 247.797 950.926 248.434C948.447 249.071 945.968 249.708 944.729 250.982C944.109 250.982 944.109 250.982 944.109 251.619C945.348 252.256 947.208 252.893 949.067 252.893C952.166 250.345 955.884 248.434 960.222 247.16Z" fill="url(#paint17_radial_601_2)"/>
<path d="M1113.3 334.432C1090.99 328.699 1072.4 339.528 1057.52 347.809C1051.33 350.994 1026.54 365.645 1046.37 366.282C1063.1 366.919 1077.36 366.282 1094.09 364.371C1106.49 362.46 1123.22 361.186 1134.37 357.364C1156.69 349.72 1126.94 338.891 1115.16 335.069C1114.54 334.432 1113.92 334.432 1113.3 334.432Z" fill="url(#paint18_linear_601_2)"/>
<path opacity="0.6" d="M1099.05 335.706C1098.43 335.706 1097.81 335.706 1097.19 335.706C1095.95 335.706 1094.09 336.343 1092.85 336.98C1082.93 338.891 1074.26 343.987 1066.82 347.172C1059.38 350.994 1051.95 355.453 1048.23 359.912C1046.37 360.549 1045.75 361.824 1047.61 361.824C1053.19 363.735 1061.86 363.098 1069.92 362.46C1074.26 352.268 1084.17 343.987 1099.05 335.706Z" fill="url(#paint19_linear_601_2)"/>
<path d="M1372.36 275.189C1359.35 272.004 1347.57 278.374 1337.65 283.47C1333.94 285.381 1317.2 294.3 1329.6 294.937C1339.51 295.574 1348.81 294.937 1358.73 293.663C1366.16 292.389 1376.7 291.752 1383.52 289.203C1397.77 284.107 1380.42 277.737 1372.98 275.189H1372.36Z" fill="url(#paint20_linear_601_2)"/>
<path opacity="0.6" d="M1363.06 275.825C1363.06 275.825 1362.44 275.825 1361.82 275.825C1361.21 275.825 1359.97 276.462 1358.73 276.462C1352.53 277.736 1346.95 280.921 1341.99 282.832C1337.03 284.743 1332.08 287.928 1329.6 291.113C1328.36 291.75 1327.74 292.387 1328.98 292.387C1332.7 293.662 1337.65 293.025 1342.61 293.025C1346.95 286.654 1353.77 280.921 1363.06 275.825Z" fill="url(#paint21_linear_601_2)"/>
<path d="M1362.44 360.549C1348.81 357.364 1336.41 363.734 1325.88 368.83C1322.16 370.741 1304.81 380.296 1317.82 380.933C1328.36 381.57 1337.65 380.933 1348.81 379.659C1356.87 378.385 1367.4 377.748 1374.84 375.2C1389.71 370.104 1371.12 363.097 1363.68 361.186C1363.68 360.549 1363.06 360.549 1362.44 360.549Z" fill="url(#paint22_linear_601_2)"/>
<path opacity="0.6" d="M1353.15 361.185C1353.15 361.185 1352.53 361.185 1351.91 361.185C1350.67 361.185 1350.05 361.822 1348.81 361.822C1342.61 363.096 1336.41 366.281 1331.46 368.192C1326.5 370.74 1321.54 373.288 1318.44 376.473C1317.2 377.11 1316.58 377.747 1317.82 377.747C1321.54 379.021 1326.5 378.384 1332.08 378.384C1336.41 372.014 1343.85 366.918 1353.15 361.185Z" fill="url(#paint23_linear_601_2)"/>
<path d="M402.442 327.424C393.146 322.965 382.61 326.15 373.934 329.336C370.835 330.61 355.961 335.069 365.257 337.617C373.314 339.528 380.131 340.165 388.188 340.802C394.385 340.802 402.442 341.439 408.64 340.802C420.415 338.891 408.64 331.247 403.682 328.699C403.062 327.425 403.062 327.424 402.442 327.424Z" fill="url(#paint24_linear_601_2)"/>
<path opacity="0.6" d="M395.625 326.786H395.005C394.386 326.786 393.766 326.786 392.526 326.786C387.568 326.786 382.61 328.697 378.272 329.334C373.934 330.608 369.595 331.882 367.116 333.793C366.496 333.793 365.877 334.43 366.496 335.067C368.976 336.341 372.694 336.978 377.032 336.978C380.751 332.519 387.568 329.334 395.625 326.786Z" fill="url(#paint25_linear_601_2)"/>
<path d="M7.65757 365.009C-2.25854 360.55 -12.1746 364.372 -20.2315 366.92C-23.3303 368.194 -36.9649 372.653 -27.6686 374.563C-19.6117 376.474 -12.7944 377.111 -4.11782 377.111C2.07975 377.111 10.1366 377.748 15.7144 377.111C26.87 375.2 13.8551 368.193 8.89709 365.646C8.27733 365.009 7.65757 365.009 7.65757 365.009Z" fill="url(#paint26_linear_601_2)"/>
<path opacity="0.6" d="M0.840063 364.371H0.220318C-0.399439 364.371 -1.0192 364.371 -2.25872 364.371C-7.21676 364.371 -11.555 366.282 -15.8933 366.919C-19.6119 368.193 -23.9502 369.467 -26.4292 371.378C-27.0489 371.378 -27.6687 372.015 -27.049 372.015C-24.5699 373.289 -20.2316 373.926 -16.5131 373.926C-12.7946 370.104 -7.21676 366.919 0.840063 364.371Z" fill="url(#paint27_linear_601_2)"/>
<path d="M643.528 311.499C636.091 307.677 628.034 310.862 620.597 312.773C617.498 313.41 605.722 317.232 613.16 319.143C619.357 320.417 624.935 321.054 631.133 321.691C636.091 321.691 642.288 322.328 647.246 321.691C656.543 320.417 647.866 314.047 643.528 311.499C643.528 312.136 643.528 311.499 643.528 311.499Z" fill="url(#paint28_linear_601_2)"/>
<path opacity="0.6" d="M637.95 310.861H637.33C636.71 310.861 636.09 310.861 635.471 310.861C631.752 310.861 627.414 312.135 624.315 313.409C621.216 314.046 617.498 315.32 615.019 317.231C614.399 317.231 613.779 317.868 614.399 317.868C616.258 319.142 619.357 319.142 622.456 319.779C625.554 315.957 631.132 313.409 637.95 310.861Z" fill="url(#paint29_linear_601_2)"/>
<path d="M308.859 271.368C300.802 267.546 292.745 270.731 285.928 272.642C283.449 273.279 271.674 277.738 279.111 279.012C285.308 280.286 290.886 281.56 297.703 281.56C302.662 281.56 309.479 282.197 313.817 281.56C323.113 280.286 313.197 273.916 309.479 271.368H308.859Z" fill="url(#paint30_linear_601_2)"/>
<path opacity="0.6" d="M303.281 270.729H302.662C302.042 270.729 301.422 270.729 300.802 270.729C297.084 270.729 292.745 272.003 289.647 273.277C286.548 273.914 282.829 275.826 280.35 277.1C279.731 277.1 279.111 277.737 279.731 277.737C281.59 279.011 284.689 279.011 288.407 279.648C291.506 275.826 296.464 273.278 303.281 270.729Z" fill="url(#paint31_linear_601_2)"/>
<path d="M115.495 299.396C110.537 296.848 105.579 298.759 101.241 300.033C99.3815 300.67 92.5642 303.218 97.5222 303.855C101.241 304.492 104.959 305.129 109.298 305.129C112.396 305.129 116.735 305.766 119.214 305.129C124.791 305.129 118.594 301.307 115.495 299.396C115.495 300.033 115.495 300.033 115.495 299.396Z" fill="url(#paint32_linear_601_2)"/>
<path opacity="0.6" d="M111.777 299.395C111.157 299.395 110.537 299.395 109.917 299.395C107.438 299.395 104.959 300.032 103.1 300.669C101.241 301.306 98.7618 301.943 97.5223 303.217C96.9026 303.217 96.9026 303.217 96.9026 303.854C98.1421 304.491 100.001 304.491 102.48 305.128C104.959 302.58 108.058 300.669 111.777 299.395Z" fill="url(#paint33_linear_601_2)"/>
<path d="M963.941 247.161C959.603 244.613 954.025 246.524 949.067 247.798C947.208 248.435 939.151 250.983 943.489 252.257C947.208 252.894 950.926 253.531 954.645 253.531C957.744 253.531 961.462 254.168 964.561 253.531C971.378 252.894 966.42 249.072 963.941 247.161C963.941 247.798 963.941 247.798 963.941 247.161Z" fill="url(#paint34_linear_601_2)"/>
<path opacity="0.6" d="M960.222 247.16C959.603 247.16 958.983 247.16 958.363 247.16C955.884 247.16 953.405 247.797 950.926 248.434C948.447 249.071 945.968 249.708 944.729 250.982C944.109 250.982 944.109 250.982 944.109 251.619C945.348 252.256 947.208 252.893 949.067 252.893C952.166 250.345 955.884 248.434 960.222 247.16Z" fill="url(#paint35_linear_601_2)"/>
<path opacity="0.3" d="M1411.4 212.762C1382.9 216.584 1354.39 218.495 1326.5 222.954C1299.85 227.414 1272.58 235.695 1248.41 243.339C1221.14 252.257 1196.97 261.812 1174.04 273.279C1152.35 284.108 1126.32 292.389 1105.87 303.218C1102.15 304.492 1099.05 305.766 1097.81 307.677C1097.19 308.951 1101.53 308.314 1102.15 307.04C1108.34 305.129 1114.54 303.855 1120.74 301.944C1133.75 300.67 1146.15 300.033 1158.54 296.848C1167.84 294.937 1175.9 291.752 1183.95 288.567C1196.35 284.108 1208.74 280.923 1222.38 277.738C1222.38 277.738 1223 277.738 1222.38 277.738C1213.7 279.012 1204.41 279.649 1195.11 280.286C1193.25 280.286 1192.01 280.286 1190.77 280.923C1216.8 272.005 1244.69 263.723 1275.06 259.901C1275.68 259.901 1276.92 258.627 1275.68 258.627C1255.23 259.264 1235.39 260.538 1216.18 264.36C1230.44 258.627 1245.31 252.894 1260.8 248.435C1302.33 235.695 1350.05 228.688 1394.05 218.495C1394.67 218.495 1394.67 217.858 1394.05 217.858C1365.54 222.317 1337.03 226.14 1309.76 231.236C1324.64 227.414 1338.27 222.955 1355.01 220.406C1373.6 218.495 1392.19 215.947 1411.4 212.762Z" fill="url(#paint36_radial_601_2)"/>
<path opacity="0.3" d="M1418.84 323.602C1385.38 319.143 1339.51 315.958 1303.57 321.691C1299.23 322.328 1295.51 322.965 1291.17 323.602C1273.2 326.151 1255.23 329.973 1241.59 333.795C1226.1 338.891 1194.49 343.987 1185.81 352.268V352.905C1185.19 353.542 1185.19 354.179 1187.67 354.179C1209.98 352.268 1232.3 345.261 1254.61 343.35C1280.64 341.439 1306.67 335.706 1333.32 335.706C1333.94 335.706 1335.18 335.069 1333.94 335.069C1319.06 333.795 1304.19 333.158 1288.69 333.158C1291.17 332.521 1294.27 331.884 1296.75 331.884C1302.95 330.61 1309.15 329.973 1315.96 329.336C1328.36 329.336 1340.13 329.336 1351.91 329.336C1371.74 329.336 1392.81 327.425 1412.03 329.336C1412.64 329.336 1413.26 328.699 1412.64 328.699C1403.35 326.788 1393.43 324.876 1383.52 324.239C1395.29 324.239 1406.45 324.239 1417.6 324.876C1418.22 324.876 1419.46 323.602 1418.84 323.602Z" fill="url(#paint37_radial_601_2)"/>
<path opacity="0.3" d="M954.645 333.158C921.178 330.61 890.19 324.877 854.864 326.151C818.299 328.062 784.212 329.973 748.886 334.432C740.209 335.069 732.152 335.706 725.335 337.617C724.096 338.254 723.476 339.528 725.955 338.891C727.814 338.254 729.673 338.254 731.533 337.617C734.631 337.617 737.11 336.98 740.209 336.98C756.943 336.343 774.916 339.528 790.409 338.891C816.439 337.617 843.089 336.98 869.119 337.617C869.738 337.617 869.738 336.98 869.738 336.98C849.286 335.069 827.595 333.158 805.903 332.521C818.918 332.521 831.933 332.521 844.328 333.158C880.894 333.795 918.079 333.158 954.645 333.158C955.265 333.158 954.645 333.158 954.645 333.158Z" fill="url(#paint38_radial_601_2)"/>
<path opacity="0.3" d="M915.6 369.467C906.924 369.467 897.008 369.467 888.331 370.104C875.316 371.378 864.161 374.563 851.146 374.563C823.876 374.563 796.607 377.111 769.338 375.837C743.928 375.2 719.757 375.2 694.347 372.015C678.234 370.104 661.5 370.741 644.147 372.015C624.935 372.015 605.102 373.289 587.13 372.652C586.51 372.652 585.27 373.289 586.51 373.289C615.019 376.474 644.147 375.2 672.656 379.66C701.784 384.119 738.97 384.756 769.338 384.756C769.958 384.756 770.577 384.119 769.958 384.119C762.521 383.482 755.703 382.845 748.266 381.57C752.604 381.57 756.943 381.571 761.281 380.934C812.101 378.385 864.78 377.111 914.981 371.378C915.6 371.378 918.079 369.467 915.6 369.467Z" fill="url(#paint39_radial_601_2)"/>
<path opacity="0.3" d="M481.151 362.46C460.699 361.186 440.867 359.275 420.415 359.912C404.301 360.549 387.568 363.097 372.074 364.371C370.835 364.371 370.835 365.645 372.074 365.008C387.568 364.371 403.682 365.645 418.556 365.008C439.008 364.371 460.079 363.734 481.151 362.46C481.151 362.46 481.151 363.097 481.151 362.46Z" fill="url(#paint40_radial_601_2)"/>
<path opacity="0.3" d="M488.588 309.588C407.4 296.211 328.071 289.203 245.024 295.574C245.024 295.574 244.404 295.574 245.024 295.574C265.476 296.211 285.308 294.937 305.76 296.211C305.76 296.211 305.76 296.211 306.38 296.211C277.251 296.848 248.123 298.122 219.614 300.033C218.994 300.033 218.375 301.307 219.614 301.307C240.686 301.307 261.757 300.033 282.829 300.033C297.084 300.033 310.718 301.307 324.973 301.944C307 301.944 289.647 302.581 271.054 303.218C271.054 303.218 270.434 303.218 271.054 303.218C279.73 304.492 288.407 303.855 297.084 304.492C311.338 305.766 324.973 307.677 339.227 308.951C368.975 311.499 398.724 314.047 427.852 315.321C428.472 315.321 429.092 314.684 428.472 314.684C414.837 313.41 401.822 312.773 388.808 310.225C378.272 307.677 366.496 305.766 355.341 304.492C391.906 307.04 429.092 309.588 464.418 314.047C465.038 314.047 466.277 313.41 465.038 313.41C445.205 308.314 424.134 304.492 403.062 301.944C413.598 302.581 424.134 303.855 434.05 305.129C452.642 307.04 469.996 310.225 487.969 311.499C488.588 310.225 489.828 309.588 488.588 309.588Z" fill="url(#paint41_radial_601_2)"/>
<path opacity="0.3" d="M293.365 342.076C271.674 340.802 246.884 340.802 225.812 336.343C204.74 331.884 182.429 328.062 161.357 322.965C147.103 319.78 130.989 315.321 115.495 313.41C98.7617 311.499 83.2678 311.499 66.5344 310.862C65.9146 310.862 65.9146 310.862 66.5344 311.499C78.9295 313.41 91.9444 314.047 104.34 315.958C95.0432 315.321 85.7469 314.684 75.211 314.684C73.9715 314.684 73.3517 315.321 74.5912 315.958C88.8456 317.232 103.72 319.143 117.354 321.691C108.058 321.054 98.142 321.054 88.8457 319.78C88.8457 319.78 88.2259 319.78 88.8457 319.78C100.621 324.239 117.354 326.788 130.369 329.973C139.046 331.884 147.103 334.432 155.779 336.98C166.315 339.528 180.57 340.165 191.725 342.076C192.965 342.076 194.824 340.802 193.584 340.802C189.866 339.528 186.147 338.254 182.429 336.98C192.965 339.528 203.501 342.076 215.276 343.987C232.009 346.535 248.743 346.535 265.476 348.446C266.096 348.446 266.716 347.809 266.096 347.809C252.461 343.987 237.587 342.713 223.333 339.528C246.264 341.439 269.195 342.713 292.745 342.713C293.985 342.713 294.605 342.076 293.365 342.076Z" fill="url(#paint42_radial_601_2)"/>
<path opacity="0.3" d="M93.1838 275.826C40.5045 246.524 2.07964 209.577 -12.1747 169.445H-12.7945C-9.69571 183.46 -4.11791 196.837 4.55867 210.214C-4.11791 201.296 -12.1747 191.741 -18.992 182.186H-19.6118C-12.7945 195.563 -4.73766 207.666 5.79819 219.132C-1.63888 212.762 -8.45622 205.755 -14.6538 198.748C-14.6538 198.111 -15.8933 198.748 -15.8933 199.385C-10.3155 208.303 -5.35743 217.221 2.07964 226.139C-4.11792 221.043 -7.83645 214.673 -14.034 208.94H-14.6538C-1.01914 224.228 3.93892 238.243 24.3909 252.257C34.9267 259.901 56.6181 269.456 72.7318 272.641C73.3516 272.641 74.5911 272.004 73.9713 271.367C60.3367 266.271 49.8009 259.264 39.8848 252.257C49.1811 256.716 59.7169 261.175 69.633 265.634C70.2528 266.271 72.1121 264.997 70.8726 264.997C70.2528 264.36 69.633 264.36 69.0133 263.723C77.0701 267.545 85.1269 271.367 93.1838 275.189C92.564 276.463 93.8035 275.826 93.1838 275.826Z" fill="url(#paint43_radial_601_2)"/>
<path opacity="0.3" d="M139.046 359.912C119.833 354.179 100.001 348.446 80.1689 342.713C67.154 338.891 54.1391 336.343 41.1242 333.795C-3.49822 317.869 -46.2614 300.67 -74.7701 275.19H-75.3899C-69.8121 282.197 -62.9948 289.204 -55.5577 295.574C-66.7133 287.93 -77.2492 280.286 -87.1653 272.005C-87.785 271.368 -88.4048 272.005 -88.4048 272.642C-76.6294 285.382 -68.5726 297.485 -52.4589 308.314C-61.7553 303.855 -70.4319 298.759 -78.4887 293.663C-79.1085 293.663 -79.7282 293.663 -79.7282 294.3C-63.6146 310.225 -46.8811 321.054 -19.6119 331.884C9.51666 343.35 39.8847 350.994 73.9713 355.453C75.2108 355.453 75.8306 354.816 74.591 354.816C45.4625 349.083 20.6723 338.891 -4.73772 329.335C-9.07601 327.424 -13.4143 326.15 -17.1328 324.239C-9.07601 326.15 -0.399443 328.061 7.03763 329.973C13.2352 331.884 20.0525 334.432 26.8698 335.706C28.1093 335.706 29.3489 336.343 29.9686 336.343C37.4057 338.254 44.8428 340.802 52.8996 342.076C75.8306 348.446 98.7615 355.453 121.692 361.186C116.115 358.001 109.917 355.453 103.1 353.542C114.255 356.09 125.411 358.638 136.567 361.186C139.046 361.186 140.285 360.549 139.046 359.912Z" fill="url(#paint44_radial_601_2)"/>
<path opacity="0.3" d="M33.0675 31.2134H32.4478C33.6873 41.4056 36.1663 50.9608 38.6453 60.516C37.4058 57.9679 36.1663 56.0569 34.9268 53.5088C34.9268 52.8718 34.307 53.5088 34.307 53.5088C38.0256 70.7082 33.0675 86.6335 43.6034 103.833C54.759 121.669 67.7739 139.506 83.8875 156.068C84.5073 156.705 85.7468 156.068 85.7468 156.068C91.3246 163.075 96.9024 170.082 103.1 176.452C103.72 177.089 104.34 176.452 104.34 175.815C68.3936 131.224 51.6602 81.5374 33.0675 31.2134Z" fill="url(#paint45_radial_601_2)"/>
<path opacity="0.3" d="M252.461 211.488C246.883 208.94 240.686 207.029 235.108 204.481C235.108 204.481 235.108 204.481 235.108 203.844C205.36 189.193 178.71 172.63 154.54 154.794C153.92 154.794 153.3 154.794 153.92 155.431C161.357 163.712 168.794 171.993 178.09 179.637C174.372 177.726 170.653 175.178 166.935 173.267C166.315 173.267 165.695 173.267 166.315 173.904C186.147 190.467 216.515 207.029 251.841 213.399C251.841 212.762 253.7 212.125 252.461 211.488Z" fill="url(#paint46_radial_601_2)"/>
<path opacity="0.3" d="M395.625 179.001C373.933 168.171 351.622 157.979 331.17 146.513C307 132.499 286.548 115.936 266.096 100.011C265.476 99.3739 264.237 100.011 264.856 100.648C273.533 110.203 282.209 119.121 292.126 128.039C280.35 121.032 268.575 114.025 257.419 107.018C257.419 107.018 256.18 107.018 256.8 107.655C272.293 120.395 284.069 133.136 300.182 145.239C314.437 156.068 342.326 164.986 362.778 171.993C364.017 172.63 365.877 171.993 365.877 170.719C375.173 173.904 385.089 177.089 394.385 180.912C395.005 180.912 396.864 179.638 395.625 179.001Z" fill="url(#paint47_radial_601_2)"/>
<path opacity="0.3" d="M703.643 230.598C682.572 229.961 662.12 228.687 641.048 228.05C638.569 228.05 636.09 228.05 632.991 228.05C618.737 226.776 603.863 226.139 589.608 224.228C569.776 221.68 552.423 219.769 532.591 219.132C533.21 218.495 533.83 217.858 532.591 217.858C507.181 214.036 480.531 210.851 454.501 208.94C440.247 207.666 423.514 207.666 409.879 208.94C397.484 209.577 380.131 215.947 368.355 214.673C367.736 214.673 367.736 215.31 367.736 215.31C372.694 215.947 375.792 215.947 380.75 215.31C398.104 213.399 414.837 215.947 432.19 216.584C463.798 217.221 494.786 217.221 526.393 219.132C508.42 219.132 491.067 217.858 472.474 218.495C449.543 219.769 428.472 224.228 406.16 226.139C405.541 226.139 405.541 226.776 406.16 226.776C424.753 226.776 443.346 224.865 462.558 224.865C483.01 224.228 502.223 227.413 522.675 227.413C551.803 228.05 580.932 228.687 610.06 229.324C597.665 230.598 580.932 231.872 571.016 230.598C570.396 230.598 570.396 230.598 570.396 231.235C584.03 235.694 608.821 233.146 623.695 233.146C649.725 233.146 675.135 234.42 701.784 233.146C703.643 232.509 706.122 230.598 703.643 230.598Z" fill="url(#paint48_radial_601_2)"/>
<path opacity="0.3" d="M348.523 249.072C329.93 248.435 311.957 247.161 292.745 247.161C276.631 247.161 251.221 243.338 238.206 236.968C237.587 236.968 237.587 236.968 237.587 237.605C250.602 244.612 264.236 250.983 281.589 254.168C302.041 257.99 328.071 254.168 347.283 252.257C349.762 251.62 352.241 249.072 348.523 249.072Z" fill="url(#paint49_radial_601_2)"/>
<path opacity="0.3" d="M1137.47 215.947C1105.87 221.68 1075.5 231.873 1043.27 236.969C1042.65 236.969 1042.03 237.606 1042.65 237.606C1079.22 237.606 1108.34 231.873 1138.71 219.132C1141.19 217.858 1141.81 215.31 1137.47 215.947Z" fill="url(#paint50_radial_601_2)"/>
<path opacity="0.3" d="M1087.27 209.577C1068.06 209.577 1049.47 210.851 1030.25 212.762C1002.99 212.762 975.716 212.125 947.827 213.399C946.588 213.399 945.968 213.399 944.728 213.399C926.136 212.762 907.543 212.762 889.57 214.673C869.738 216.584 850.526 219.132 831.313 221.681C816.439 223.592 804.044 228.051 789.79 230.599C789.17 230.599 789.17 231.236 789.79 231.236C803.424 229.325 815.819 226.14 830.074 224.866C846.187 223.592 862.921 222.954 879.034 222.317C881.513 222.317 883.992 222.318 886.471 221.681C872.217 224.866 857.963 228.051 844.328 231.873C843.708 231.873 843.708 232.51 844.328 232.51C879.034 226.777 913.741 221.68 950.306 221.043C962.701 221.043 975.716 220.406 988.111 219.769C980.055 221.68 971.378 222.955 963.321 223.592C963.321 223.592 962.701 224.229 963.321 224.229C981.294 224.229 1000.51 221.681 1018.48 220.406C1042.65 219.132 1062.48 217.221 1085.41 212.125C1087.89 211.488 1090.37 209.577 1087.27 209.577Z" fill="url(#paint51_radial_601_2)"/>
<path opacity="0.3" d="M1452.31 115.299C1446.11 120.395 1441.15 126.128 1436.2 131.861C1444.25 119.758 1449.21 106.381 1458.51 94.2778H1457.89C1446.11 104.47 1436.82 115.299 1426.9 126.128C1415.12 138.869 1412.02 152.883 1402.73 166.26C1402.11 167.534 1403.97 166.897 1405.21 166.26C1413.26 158.616 1421.32 150.972 1427.52 142.691C1421.94 150.972 1416.98 158.616 1412.02 166.26C1411.4 167.534 1414.5 166.897 1415.12 166.26C1438.67 150.335 1439.29 133.135 1452.31 115.299C1452.31 115.299 1452.93 115.299 1452.31 115.299Z" fill="url(#paint52_radial_601_2)"/>
<path opacity="0.3" d="M1456.65 126.128C1447.97 135.046 1443.63 144.602 1434.34 153.52C1437.43 149.061 1439.29 144.602 1439.91 140.78C1439.91 140.143 1438.67 140.78 1438.67 140.78C1434.96 149.061 1427.52 156.705 1420.08 164.349C1411.41 170.082 1402.11 175.815 1394.05 182.185C1392.81 183.459 1394.67 184.096 1395.91 182.822C1411.41 175.178 1424.42 165.623 1436.2 156.705C1448.59 146.513 1450.45 136.32 1457.27 125.491C1457.27 126.128 1456.65 126.128 1456.65 126.128Z" fill="url(#paint53_radial_601_2)"/>
<path opacity="0.3" d="M950.306 280.923C913.121 273.916 873.457 270.73 833.792 267.545C820.158 266.271 806.523 265.634 792.269 264.997C769.957 263.723 748.266 262.449 726.574 259.901C708.602 257.99 689.389 259.264 670.797 259.264C651.584 259.264 632.372 259.264 613.779 259.901C576.594 262.449 539.408 264.997 502.843 269.456C502.843 269.456 502.223 270.093 502.843 270.093C534.45 270.73 567.917 266.271 598.905 263.723C619.357 261.812 641.048 261.175 663.359 261.175C634.231 263.086 605.722 266.271 575.354 267.545C574.734 267.545 574.115 268.182 575.354 268.182C595.806 268.819 616.258 267.545 636.71 266.908C657.162 266.908 676.994 268.182 697.446 268.819C683.811 270.093 670.797 271.367 657.162 272.004C657.162 272.004 656.542 272.642 657.162 272.642C676.374 272.642 694.967 270.73 714.179 271.368C725.335 271.368 736.491 271.368 747.026 271.368C724.095 272.642 701.165 275.19 678.234 277.101C677.614 277.101 677.614 277.738 678.234 277.738C714.799 275.19 750.125 273.916 787.311 274.553C826.975 275.827 866.019 278.375 905.064 279.649C905.684 279.649 906.304 279.012 905.684 279.012C875.316 277.101 846.187 272.641 815.2 270.73C823.256 270.73 831.313 270.73 839.99 270.73C848.047 270.73 856.103 271.367 864.16 272.004C892.669 274.553 921.178 278.375 949.686 280.923C950.306 281.56 950.926 280.923 950.306 280.923Z" fill="url(#paint54_radial_601_2)"/>
<g opacity="0.3">
<path opacity="0.3" d="M1405.83 114.025C1406.45 109.566 1407.69 105.107 1407.69 100.648C1410.17 76.4414 1410.79 52.2349 1414.5 26.7544C1407.07 40.1317 1396.53 52.8719 1388.47 65.6122C1374.84 87.9076 1367.4 110.84 1359.35 132.498C1353.15 148.424 1346.95 163.075 1328.98 177.089C1328.36 177.726 1327.74 178.363 1326.5 178.363C1326.5 178.363 1326.5 179 1325.88 179C1320.92 182.822 1315.34 186.008 1310.38 189.83C1293.65 201.296 1274.44 210.851 1257.09 221.68C1269.48 219.132 1282.5 216.584 1294.89 214.036C1301.09 212.125 1307.29 210.214 1313.48 207.666C1333.94 200.022 1355.01 191.104 1371.12 180.274C1389.09 168.171 1394.05 155.431 1397.77 141.417C1399.63 135.047 1400.87 128.039 1402.11 121.669C1403.97 119.758 1405.21 117.21 1405.83 114.025Z" fill="url(#paint55_radial_601_2)"/>
<path opacity="0.3" d="M1528.54 207.666C1527.3 207.666 1526.06 207.666 1524.82 207.666C1514.28 208.94 1498.17 208.94 1487.64 211.488C1471.52 215.947 1456.65 221.043 1442.39 226.139C1431.24 229.324 1420.7 232.51 1410.79 235.695C1386 243.976 1362.44 252.257 1338.89 261.175C1338.27 261.175 1337.65 261.812 1337.03 261.812C1325.26 265.634 1314.1 269.456 1303.57 273.278C1298.61 274.552 1293.65 276.464 1289.31 277.738C1273.2 282.834 1257.71 290.478 1240.97 296.848C1260.18 293.026 1278.78 289.204 1296.75 283.471C1298.61 282.834 1301.09 282.197 1302.95 281.56C1312.86 277.738 1322.78 273.916 1333.32 270.73C1337.65 269.456 1342.61 268.182 1346.95 266.908C1365.54 260.538 1383.52 254.805 1403.97 249.709C1453.55 236.969 1503.13 221.68 1554.57 208.303C1546.51 208.94 1537.84 208.303 1528.54 207.666Z" fill="url(#paint56_radial_601_2)"/>
<path opacity="0.3" d="M1182.1 261.812C1188.91 256.716 1195.73 252.257 1202.55 247.161C1131.9 266.909 1051.95 272.642 975.097 276.464C986.253 278.375 1001.75 278.375 1011.66 277.738C1014.76 277.738 1017.86 277.738 1020.96 277.738C1029.02 278.375 1036.45 279.649 1044.51 280.923C1065.58 284.108 1085.41 282.834 1107.11 280.923C1126.32 279.012 1147.39 274.553 1164.12 269.457C1170.94 266.909 1176.52 264.36 1182.1 261.812Z" fill="url(#paint57_radial_601_2)"/>
<path opacity="0.3" d="M1154.21 228.051C1164.74 224.866 1174.66 221.681 1182.71 217.859C1192.63 213.399 1201.93 210.214 1209.36 206.392C1221.14 194.926 1234.15 183.46 1237.25 171.357C1240.97 156.705 1236.63 142.054 1230.44 127.403C1226.72 147.787 1221.14 168.172 1204.41 186.008C1186.43 205.118 1157.92 219.77 1129.42 233.784C1137.47 232.51 1146.15 229.962 1154.21 228.051Z" fill="url(#paint58_radial_601_2)"/>
<path opacity="0.3" d="M1520.48 282.197C1513.67 285.382 1506.85 288.567 1500.03 291.115C1498.79 291.752 1497.55 292.389 1496.93 293.026C1491.35 296.211 1483.92 297.485 1475.86 298.122C1472.76 298.759 1469.04 299.396 1465.94 299.396C1460.99 300.033 1456.03 300.033 1451.07 300.67C1444.87 301.307 1438.67 301.944 1433.1 301.944C1431.86 301.944 1431.24 301.944 1430 301.944C1415.74 302.581 1401.49 303.855 1387.23 305.766C1376.08 307.04 1365.54 308.951 1354.39 310.862C1367.4 310.225 1380.42 310.225 1392.81 310.862C1403.35 311.499 1415.12 312.136 1426.9 312.773C1444.87 314.047 1465.32 317.232 1483.3 312.773C1501.27 308.951 1517.38 300.67 1529.78 293.026C1539.08 287.293 1547.13 280.286 1556.43 273.916C1561.39 270.731 1568.2 267.545 1571.3 263.723V263.086C1553.33 269.457 1535.98 274.553 1520.48 282.197Z" fill="url(#paint59_radial_601_2)"/>
<path opacity="0.3" d="M1506.85 347.172C1492.59 352.905 1477.72 358.001 1462.85 362.46C1451.07 366.919 1438.67 370.741 1425.04 373.289C1435.58 373.289 1446.11 373.289 1457.27 373.289C1462.85 372.015 1468.42 371.378 1472.76 370.741C1500.65 366.919 1521.1 361.186 1543.41 350.994C1560.15 343.35 1563.25 332.521 1567.58 322.965C1568.82 321.691 1569.44 321.054 1570.68 319.78C1551.47 329.335 1528.54 338.254 1506.85 347.172Z" fill="url(#paint60_radial_601_2)"/>
<path opacity="0.3" d="M1028.4 334.432C1014.14 336.343 1000.51 339.528 985.013 338.891C964.561 338.254 942.87 340.165 922.418 340.802C900.106 342.076 878.415 340.802 856.104 343.987C846.807 345.261 836.891 345.898 826.355 346.535C827.595 346.535 828.834 346.535 830.694 347.172C838.131 347.809 845.568 348.446 853.625 349.083C871.598 350.357 888.951 352.268 907.543 352.268C931.094 352.268 955.265 349.72 978.196 349.083C994.309 348.446 1006.7 342.076 1020.96 337.617C1024.06 336.98 1025.92 335.706 1028.4 334.432Z" fill="url(#paint61_radial_601_2)"/>
<path opacity="0.3" d="M355.341 267.545C354.101 266.908 352.242 266.271 350.383 265.634C338.607 261.812 325.593 263.723 313.197 261.812C312.578 261.812 311.958 261.812 311.338 261.175C300.802 260.538 290.266 259.901 279.111 259.901C248.743 258.627 221.474 261.175 193.584 256.716C177.471 249.709 161.977 242.065 148.342 233.146C114.875 209.577 77.6901 183.459 53.5196 155.431C53.5196 154.794 52.8999 154.794 52.2801 154.157C43.6035 138.231 33.6874 122.306 25.0108 106.381C16.954 91.0925 15.0947 75.8042 13.2355 59.8789C7.65767 67.5231 2.07986 74.5302 -2.25843 82.1743C-2.25843 82.8114 -2.25843 83.4483 -2.25843 83.4483C-5.35721 98.0996 -7.83623 112.114 -9.07574 126.765C-9.69549 136.32 -7.21646 146.513 -1.63866 156.068C3.31939 164.349 8.8972 171.993 15.0948 180.274C23.7713 191.74 31.8282 203.844 41.7443 214.673C43.6035 214.036 44.843 212.762 43.6035 211.488C34.9269 202.57 34.3072 191.103 28.7294 181.548C21.2923 168.171 21.9121 154.794 19.433 141.416C18.8133 136.957 17.5738 133.135 16.954 128.676C26.8701 142.053 39.885 155.431 51.6604 167.534C53.5196 170.719 55.3789 173.267 57.2381 176.452C62.816 185.37 69.0135 193.651 76.4506 201.933C86.3667 214.673 97.5223 227.413 109.298 239.516C121.693 252.257 141.525 264.36 165.695 271.367C179.33 275.189 193.584 277.1 207.839 279.011C208.459 279.011 208.459 279.011 208.459 279.011C209.698 279.011 210.318 279.011 211.557 279.011C229.53 281.559 248.123 283.47 265.476 287.929C267.335 288.566 270.434 286.655 268.575 285.381C259.279 281.559 249.363 277.737 240.066 273.915C249.363 273.915 258.039 273.278 266.716 272.641C294.605 271.367 325.593 266.908 355.341 267.545Z" fill="url(#paint62_radial_601_2)"/>
<path opacity="0.3" d="M336.128 194.289C368.975 194.289 402.442 196.2 435.289 198.748C409.259 190.467 381.37 184.097 351.622 182.823C333.649 184.734 316.296 189.83 301.422 193.652C298.943 194.289 293.365 196.2 288.407 198.748C305.14 196.837 321.254 194.289 336.128 194.289Z" fill="url(#paint63_radial_601_2)"/>
<path opacity="0.3" d="M124.172 89.8188C118.594 72.6195 116.735 55.4201 114.876 38.2208C112.396 28.6656 110.537 19.7474 110.537 10.1922C109.917 7.00713 108.678 3.18506 107.438 0C102.48 11.4662 94.4235 19.7474 93.184 31.8506C91.9445 40.1318 91.3247 49.05 94.4235 57.3312C93.8038 68.1604 95.663 78.3526 102.48 90.4558C112.396 107.655 133.468 124.855 152.681 139.506C140.286 124.218 130.369 107.018 124.172 89.8188Z" fill="url(#paint64_radial_601_2)"/>
<path opacity="0.3" d="M675.755 245.25C672.037 244.613 668.938 243.976 665.219 243.339C641.669 242.702 618.737 240.154 594.567 239.517C576.594 239.517 559.241 240.791 542.508 241.428C520.196 242.065 496.646 243.339 474.334 245.887C457.601 247.798 440.867 250.346 426.613 254.805C418.556 256.716 411.739 259.901 404.922 263.086C412.359 264.997 419.176 266.271 429.092 265.634C432.811 265.634 436.529 264.997 440.248 264.36C465.658 264.997 488.589 260.538 513.379 257.99C566.058 251.62 621.217 250.983 674.516 248.435C675.755 247.161 677.614 245.25 675.755 245.25Z" fill="url(#paint65_radial_601_2)"/>
<path opacity="0.3" d="M897.628 298.122C891.43 297.485 885.232 296.848 879.035 296.848C866.64 295.574 854.245 294.3 841.849 294.3C804.044 291.752 765 291.115 727.814 293.026C699.306 294.3 671.417 291.752 642.908 293.026C611.3 294.3 580.932 296.848 549.944 298.759C549.325 298.759 548.705 299.396 549.325 299.396C554.902 299.396 560.48 300.033 566.058 300.033C582.172 300.67 598.905 300.67 615.019 300.67C634.851 301.944 654.683 303.218 673.896 305.129C699.925 307.677 727.814 305.766 754.464 307.04C767.479 307.677 775.536 308.951 788.55 307.677C801.565 306.403 814.58 304.492 827.595 303.218C849.906 300.67 873.457 301.307 895.768 301.944C897.628 301.307 901.346 298.759 897.628 298.122Z" fill="url(#paint66_radial_601_2)"/>
<path opacity="0.3" d="M468.756 353.542C499.124 352.905 529.492 354.179 559.86 357.364C561.1 357.364 562.339 357.364 563.579 358.001C592.707 359.912 621.216 361.186 649.725 361.823C655.303 361.823 661.5 361.186 667.698 360.549C677.614 359.912 687.53 358.638 697.446 358.001C650.965 352.268 606.342 342.076 558.621 340.802C532.591 340.165 509.04 341.439 483.63 344.624C456.361 347.809 433.43 354.816 404.921 356.09C425.373 356.727 446.445 354.179 468.756 353.542Z" fill="url(#paint67_radial_601_2)"/>
<path opacity="0.3" d="M250.602 368.83C217.755 364.371 186.147 358.638 153.3 354.816C160.737 358.001 168.174 360.549 176.231 363.097C189.866 368.193 204.12 373.289 220.854 375.837C238.827 378.386 254.94 379.023 271.674 376.475C280.97 375.201 289.647 372.652 298.943 370.741C283.449 371.378 267.335 371.378 250.602 368.83Z" fill="url(#paint68_radial_601_2)"/>
</g>
<defs>
<radialGradient id="paint0_radial_601_2" cx="0" cy="0" r="1" gradientUnits="userSpaceOnUse" gradientTransform="translate(936.143 104.808) scale(460.666 335.362)">
<stop stop-opacity="0"/>
<stop offset="1" stop-color="#4455A4"/>
</radialGradient>
<radialGradient id="paint1_radial_601_2" cx="0" cy="0" r="1" gradientUnits="userSpaceOnUse" gradientTransform="translate(994.41 150.348) scale(233.647 272.619)">
<stop stop-opacity="0"/>
<stop offset="1" stop-color="#4455A4"/>
</radialGradient>
<radialGradient id="paint2_radial_601_2" cx="0" cy="0" r="1" gradientUnits="userSpaceOnUse" gradientTransform="translate(1261.81 133.225) scale(283.926 207.539)">
<stop stop-opacity="0"/>
<stop offset="1" stop-color="#4455A4"/>
</radialGradient>
<radialGradient id="paint3_radial_601_2" cx="0" cy="0" r="1" gradientUnits="userSpaceOnUse" gradientTransform="translate(1293.86 158.36) scale(154.523 172.765)">
<stop stop-opacity="0"/>
<stop offset="1" stop-color="#4455A4"/>
</radialGradient>
<radialGradient id="paint4_radial_601_2" cx="0" cy="0" r="1" gradientUnits="userSpaceOnUse" gradientTransform="translate(1246.29 214.275) scale(299.568 213.879)">
<stop stop-opacity="0"/>
<stop offset="1" stop-color="#4455A4"/>
</radialGradient>
<radialGradient id="paint5_radial_601_2" cx="0" cy="0" r="1" gradientUnits="userSpaceOnUse" gradientTransform="translate(1281.48 243.719) scale(160.032 172.765)">
<stop stop-opacity="0"/>
<stop offset="1" stop-color="#4455A4"/>
</radialGradient>
<radialGradient id="paint6_radial_601_2" cx="0" cy="0" r="1" gradientUnits="userSpaceOnUse" gradientTransform="translate(311.252 217.891) scale(228.771 157.862)">
<stop stop-opacity="0"/>
<stop offset="1" stop-color="#4455A4"/>
</radialGradient>
<radialGradient id="paint7_radial_601_2" cx="0" cy="0" r="1" gradientUnits="userSpaceOnUse" gradientTransform="translate(337.127 257.816) scale(130.622 101.439)">
<stop stop-opacity="0"/>
<stop offset="1" stop-color="#4455A4"/>
</radialGradient>
<radialGradient id="paint8_radial_601_2" cx="0" cy="0" r="1" gradientUnits="userSpaceOnUse" gradientTransform="translate(-81.3653 265.251) scale(226.582 143.702)">
<stop stop-opacity="0"/>
<stop offset="1" stop-color="#4455A4"/>
</radialGradient>
<radialGradient id="paint9_radial_601_2" cx="0" cy="0" r="1" gradientUnits="userSpaceOnUse" gradientTransform="translate(-55.1905 299.712) scale(125.111 95.098)">
<stop stop-opacity="0"/>
<stop offset="1" stop-color="#4455A4"/>
</radialGradient>
<radialGradient id="paint10_radial_601_2" cx="0" cy="0" r="1" gradientUnits="userSpaceOnUse" gradientTransform="translate(570.47 226.68) scale(180.666 122.111)">
<stop stop-opacity="0"/>
<stop offset="1" stop-color="#4455A4"/>
</radialGradient>
<radialGradient id="paint11_radial_601_2" cx="0" cy="0" r="1" gradientUnits="userSpaceOnUse" gradientTransform="translate(590.555 250.513) scale(105.827 88.7591)">
<stop stop-opacity="0"/>
<stop offset="1" stop-color="#4455A4"/>
</radialGradient>
<radialGradient id="paint12_radial_601_2" cx="0" cy="0" r="1" gradientUnits="userSpaceOnUse" gradientTransform="translate(236.059 186.548) scale(182.259 122.111)">
<stop stop-opacity="0"/>
<stop offset="1" stop-color="#4455A4"/>
</radialGradient>
<radialGradient id="paint13_radial_601_2" cx="0" cy="0" r="1" gradientUnits="userSpaceOnUse" gradientTransform="translate(255.887 210.381) scale(105.827 88.7591)">
<stop stop-opacity="0"/>
<stop offset="1" stop-color="#4455A4"/>
</radialGradient>
<radialGradient id="paint14_radial_601_2" cx="0" cy="0" r="1" gradientUnits="userSpaceOnUse" gradientTransform="translate(70.2776 248.928) scale(114.282 72.3788)">
<stop stop-opacity="0"/>
<stop offset="1" stop-color="#4455A4"/>
</radialGradient>
<radialGradient id="paint15_radial_601_2" cx="0" cy="0" r="1" gradientUnits="userSpaceOnUse" gradientTransform="translate(82.1664 260.6) scale(66.117 57.0591)">
<stop stop-opacity="0"/>
<stop offset="1" stop-color="#4455A4"/>
</radialGradient>
<radialGradient id="paint16_radial_601_2" cx="0" cy="0" r="1" gradientUnits="userSpaceOnUse" gradientTransform="translate(916.672 192.383) scale(114.644 78.7183)">
<stop stop-opacity="0"/>
<stop offset="1" stop-color="#4455A4"/>
</radialGradient>
<radialGradient id="paint17_radial_601_2" cx="0" cy="0" r="1" gradientUnits="userSpaceOnUse" gradientTransform="translate(928.145 208.363) scale(71.6266 57.0603)">
<stop stop-opacity="0"/>
<stop offset="1" stop-color="#4455A4"/>
</radialGradient>
<linearGradient id="paint18_linear_601_2" x1="475.477" y1="104.808" x2="1396.81" y2="104.808" gradientUnits="userSpaceOnUse">
<stop stop-color="white"/>
<stop offset="1" stop-color="#0D37FB" stop-opacity="0.22"/>
</linearGradient>
<linearGradient id="paint19_linear_601_2" x1="760.763" y1="150.348" x2="1228.06" y2="150.348" gradientUnits="userSpaceOnUse">
<stop stop-color="#0D37FB" stop-opacity="0.22"/>
<stop offset="1" stop-color="white"/>
</linearGradient>
<linearGradient id="paint20_linear_601_2" x1="977.888" y1="133.225" x2="1545.74" y2="133.225" gradientUnits="userSpaceOnUse">
<stop stop-color="white"/>
<stop offset="1" stop-color="#0D37FB" stop-opacity="0.22"/>
</linearGradient>
<linearGradient id="paint21_linear_601_2" x1="1139.34" y1="158.36" x2="1448.38" y2="158.36" gradientUnits="userSpaceOnUse">
<stop stop-color="white"/>
<stop offset="1" stop-color="#0D37FB" stop-opacity="0.22"/>
</linearGradient>
<linearGradient id="paint22_linear_601_2" x1="946.718" y1="214.275" x2="1545.85" y2="214.275" gradientUnits="userSpaceOnUse">
<stop stop-color="white"/>
<stop offset="1" stop-color="#0D37FB" stop-opacity="0.22"/>
</linearGradient>
<linearGradient id="paint23_linear_601_2" x1="1121.45" y1="243.719" x2="1441.51" y2="243.719" gradientUnits="userSpaceOnUse">
<stop stop-color="white"/>
<stop offset="1" stop-color="#0D37FB" stop-opacity="0.22"/>
</linearGradient>
<linearGradient id="paint24_linear_601_2" x1="82.4809" y1="217.891" x2="540.023" y2="217.891" gradientUnits="userSpaceOnUse">
<stop stop-color="white"/>
<stop offset="1" stop-color="#0D37FB" stop-opacity="0.22"/>
</linearGradient>
<linearGradient id="paint25_linear_601_2" x1="206.504" y1="257.816" x2="467.749" y2="257.816" gradientUnits="userSpaceOnUse">
<stop stop-color="white"/>
<stop offset="1" stop-color="#0D37FB" stop-opacity="0.22"/>
</linearGradient>
<linearGradient id="paint26_linear_601_2" x1="-307.948" y1="265.251" x2="145.217" y2="265.251" gradientUnits="userSpaceOnUse">
<stop stop-color="white"/>
<stop offset="1" stop-color="#0D37FB" stop-opacity="0.22"/>
</linearGradient>
<linearGradient id="paint27_linear_601_2" x1="-180.302" y1="299.712" x2="69.9207" y2="299.712" gradientUnits="userSpaceOnUse">
<stop stop-color="white"/>
<stop offset="1" stop-color="#0D37FB" stop-opacity="0.22"/>
</linearGradient>
<linearGradient id="paint28_linear_601_2" x1="389.804" y1="226.68" x2="751.136" y2="226.68" gradientUnits="userSpaceOnUse">
<stop stop-color="white"/>
<stop offset="1" stop-color="#0D37FB" stop-opacity="0.22"/>
</linearGradient>
<linearGradient id="paint29_linear_601_2" x1="484.728" y1="250.513" x2="696.382" y2="250.513" gradientUnits="userSpaceOnUse">
<stop stop-color="white"/>
<stop offset="1" stop-color="#0D37FB" stop-opacity="0.22"/>
</linearGradient>
<linearGradient id="paint30_linear_601_2" x1="53.7993" y1="186.548" x2="418.318" y2="186.548" gradientUnits="userSpaceOnUse">
<stop stop-color="white"/>
<stop offset="1" stop-color="#0D37FB" stop-opacity="0.22"/>
</linearGradient>
<linearGradient id="paint31_linear_601_2" x1="150.06" y1="210.381" x2="361.714" y2="210.381" gradientUnits="userSpaceOnUse">
<stop stop-color="white"/>
<stop offset="1" stop-color="#0D37FB" stop-opacity="0.22"/>
</linearGradient>
<linearGradient id="paint32_linear_601_2" x1="-44.0039" y1="248.928" x2="184.559" y2="248.928" gradientUnits="userSpaceOnUse">
<stop stop-color="white"/>
<stop offset="1" stop-color="#0D37FB" stop-opacity="0.22"/>
</linearGradient>
<linearGradient id="paint33_linear_601_2" x1="16.0494" y1="260.6" x2="148.283" y2="260.6" gradientUnits="userSpaceOnUse">
<stop stop-color="white"/>
<stop offset="1" stop-color="#0D37FB" stop-opacity="0.22"/>
</linearGradient>
<linearGradient id="paint34_linear_601_2" x1="802.028" y1="192.383" x2="1031.32" y2="192.383" gradientUnits="userSpaceOnUse">
<stop stop-color="white"/>
<stop offset="1" stop-color="#0D37FB" stop-opacity="0.22"/>
</linearGradient>
<linearGradient id="paint35_linear_601_2" x1="856.518" y1="208.363" x2="999.771" y2="208.363" gradientUnits="userSpaceOnUse">
<stop stop-color="white"/>
<stop offset="1" stop-color="#0D37FB" stop-opacity="0.22"/>
</linearGradient>
<radialGradient id="paint36_radial_601_2" cx="0" cy="0" r="1" gradientUnits="userSpaceOnUse" gradientTransform="translate(786.998 -434.226) scale(1394.24 951.573)">
<stop stop-opacity="0"/>
<stop offset="1" stop-color="#4455A4"/>
</radialGradient>
<radialGradient id="paint37_radial_601_2" cx="0" cy="0" r="1" gradientUnits="userSpaceOnUse" gradientTransform="translate(954.093 77.8293) scale(1038.12 354.118)">
<stop stop-opacity="0"/>
<stop offset="1" stop-color="#4455A4"/>
</radialGradient>
<radialGradient id="paint38_radial_601_2" cx="0" cy="0" r="1" gradientUnits="userSpaceOnUse" gradientTransform="translate(495.718 237.347) scale(1025.36 130.341)">
<stop stop-opacity="0"/>
<stop offset="1" stop-color="#4455A4"/>
</radialGradient>
<radialGradient id="paint39_radial_601_2" cx="0" cy="0" r="1" gradientUnits="userSpaceOnUse" gradientTransform="translate(258.343 266.012) scale(1470.01 152.16)">
<stop stop-opacity="0"/>
<stop offset="1" stop-color="#4455A4"/>
</radialGradient>
<radialGradient id="paint40_radial_601_2" cx="0" cy="0" r="1" gradientUnits="userSpaceOnUse" gradientTransform="translate(262.157 323.2) scale(488.993 53.8086)">
<stop stop-opacity="0"/>
<stop offset="1" stop-color="#4455A4"/>
</radialGradient>
<radialGradient id="paint41_radial_601_2" cx="0" cy="0" r="1" gradientUnits="userSpaceOnUse" gradientTransform="translate(-48.8175 143.459) scale(1201.16 220.225)">
<stop stop-opacity="0"/>
<stop offset="1" stop-color="#4455A4"/>
</radialGradient>
<radialGradient id="paint42_radial_601_2" cx="0" cy="0" r="1" gradientUnits="userSpaceOnUse" gradientTransform="translate(-159.789 56.5345) scale(1013.36 374.058)">
<stop stop-opacity="0"/>
<stop offset="1" stop-color="#4455A4"/>
</radialGradient>
<radialGradient id="paint43_radial_601_2" cx="0" cy="0" r="1" gradientUnits="userSpaceOnUse" gradientTransform="translate(-131.539 -551.511) scale(502.186 1060.36)">
<stop stop-opacity="0"/>
<stop offset="1" stop-color="#4455A4"/>
</radialGradient>
<radialGradient id="paint44_radial_601_2" cx="0" cy="0" r="1" gradientUnits="userSpaceOnUse" gradientTransform="translate(-314.229 -333.534) scale(1013.21 890.222)">
<stop stop-opacity="0"/>
<stop offset="1" stop-color="#4455A4"/>
</radialGradient>
<radialGradient id="paint45_radial_601_2" cx="0" cy="0" r="1" gradientUnits="userSpaceOnUse" gradientTransform="translate(-38.7777 -953.402) scale(319.568 1448.15)">
<stop stop-opacity="0"/>
<stop offset="1" stop-color="#4455A4"/>
</radialGradient>
<radialGradient id="paint46_radial_601_2" cx="0" cy="0" r="1" gradientUnits="userSpaceOnUse" gradientTransform="translate(55.3587 -241.787) scale(441.063 583.28)">
<stop stop-opacity="0"/>
<stop offset="1" stop-color="#4455A4"/>
</radialGradient>
<radialGradient id="paint47_radial_601_2" cx="0" cy="0" r="1" gradientUnits="userSpaceOnUse" gradientTransform="translate(118.502 -449.492) scale(619.721 807.805)">
<stop stop-opacity="0"/>
<stop offset="1" stop-color="#4455A4"/>
</radialGradient>
<radialGradient id="paint48_radial_601_2" cx="0" cy="0" r="1" gradientUnits="userSpaceOnUse" gradientTransform="translate(33.9075 32.8089) scale(1497.79 257.643)">
<stop stop-opacity="0"/>
<stop offset="1" stop-color="#4455A4"/>
</radialGradient>
<radialGradient id="paint49_radial_601_2" cx="0" cy="0" r="1" gradientUnits="userSpaceOnUse" gradientTransform="translate(125.8 109.514) scale(501.554 187.457)">
<stop stop-opacity="0"/>
<stop offset="1" stop-color="#4455A4"/>
</radialGradient>
<radialGradient id="paint50_radial_601_2" cx="0" cy="0" r="1" gradientUnits="userSpaceOnUse" gradientTransform="translate(945.043 68.6032) scale(436.782 216.562)">
<stop stop-opacity="0"/>
<stop offset="1" stop-color="#4455A4"/>
</radialGradient>
<radialGradient id="paint51_radial_601_2" cx="0" cy="0" r="1" gradientUnits="userSpaceOnUse" gradientTransform="translate(492.706 54.3925) scale(1330.84 228.241)">
<stop stop-opacity="0"/>
<stop offset="1" stop-color="#4455A4"/>
</radialGradient>
<radialGradient id="paint52_radial_601_2" cx="0" cy="0" r="1" gradientUnits="userSpaceOnUse" gradientTransform="translate(1347.22 -397.803) scale(248.489 723.739)">
<stop stop-opacity="0"/>
<stop offset="1" stop-color="#4455A4"/>
</radialGradient>
<radialGradient id="paint53_radial_601_2" cx="0" cy="0" r="1" gradientUnits="userSpaceOnUse" gradientTransform="translate(1330.61 -267.167) scale(282.816 577.512)">
<stop stop-opacity="0"/>
<stop offset="1" stop-color="#4455A4"/>
</radialGradient>
<radialGradient id="paint54_radial_601_2" cx="0" cy="0" r="1" gradientUnits="userSpaceOnUse" gradientTransform="translate(58.7237 107.554) scale(1991.4 222.52)">
<stop stop-opacity="0"/>
<stop offset="1" stop-color="#4455A4"/>
</radialGradient>
<radialGradient id="paint55_radial_601_2" cx="0" cy="0" r="1" gradientUnits="userSpaceOnUse" gradientTransform="translate(1101.13 -1292.31) scale(699.746 1940.04)">
<stop stop-opacity="0"/>
<stop offset="1" stop-color="#4455A4"/>
</radialGradient>
<radialGradient id="paint56_radial_601_2" cx="0" cy="0" r="1" gradientUnits="userSpaceOnUse" gradientTransform="translate(930.282 -395.828) scale(1393.98 887.602)">
<stop stop-opacity="0"/>
<stop offset="1" stop-color="#4455A4"/>
</radialGradient>
<radialGradient id="paint57_radial_601_2" cx="0" cy="0" r="1" gradientUnits="userSpaceOnUse" gradientTransform="translate(749.755 5.56811) scale(1011.05 355.328)">
<stop stop-opacity="0"/>
<stop offset="1" stop-color="#4455A4"/>
</radialGradient>
<radialGradient id="paint58_radial_601_2" cx="0" cy="0" r="1" gradientUnits="userSpaceOnUse" gradientTransform="translate(1021.21 -592.476) scale(485.467 1058.78)">
<stop stop-opacity="0"/>
<stop offset="1" stop-color="#4455A4"/>
</radialGradient>
<radialGradient id="paint59_radial_601_2" cx="0" cy="0" r="1" gradientUnits="userSpaceOnUse" gradientTransform="translate(1139.48 -88.6841) scale(964.213 517.374)">
<stop stop-opacity="0"/>
<stop offset="1" stop-color="#4455A4"/>
</radialGradient>
<radialGradient id="paint60_radial_601_2" cx="0" cy="0" r="1" gradientUnits="userSpaceOnUse" gradientTransform="translate(1280.75 -42.3146) scale(647.399 532.559)">
<stop stop-opacity="0"/>
<stop offset="1" stop-color="#4455A4"/>
</radialGradient>
<radialGradient id="paint61_radial_601_2" cx="0" cy="0" r="1" gradientUnits="userSpaceOnUse" gradientTransform="translate(626.188 213.732) scale(898.095 177.521)">
<stop stop-opacity="0"/>
<stop offset="1" stop-color="#4455A4"/>
</radialGradient>
<radialGradient id="paint62_radial_601_2" cx="0" cy="0" r="1" gradientUnits="userSpaceOnUse" gradientTransform="translate(-370.3 -1484.19) scale(1620.29 2270.98)">
<stop stop-opacity="0"/>
<stop offset="1" stop-color="#4455A4"/>
</radialGradient>
<radialGradient id="paint63_radial_601_2" cx="0" cy="0" r="1" gradientUnits="userSpaceOnUse" gradientTransform="translate(142.886 75.0574) scale(652.91 158.498)">
<stop stop-opacity="0"/>
<stop offset="1" stop-color="#4455A4"/>
</radialGradient>
<radialGradient id="paint64_radial_601_2" cx="0" cy="0" r="1" gradientUnits="userSpaceOnUse" gradientTransform="translate(32.2171 -944.034) scale(268.984 1388.46)">
<stop stop-opacity="0"/>
<stop offset="1" stop-color="#4455A4"/>
</radialGradient>
<radialGradient id="paint65_radial_601_2" cx="0" cy="0" r="1" gradientUnits="userSpaceOnUse" gradientTransform="translate(135.819 61.659) scale(1207.38 261.588)">
<stop stop-opacity="0"/>
<stop offset="1" stop-color="#4455A4"/>
</radialGradient>
<radialGradient id="paint66_radial_601_2" cx="0" cy="0" r="1" gradientUnits="userSpaceOnUse" gradientTransform="translate(202.162 181.562) scale(1556.46 162.304)">
<stop stop-opacity="0"/>
<stop offset="1" stop-color="#4455A4"/>
</radialGradient>
<radialGradient id="paint67_radial_601_2" cx="0" cy="0" r="1" gradientUnits="userSpaceOnUse" gradientTransform="translate(115.107 197.313) scale(1300.31 210.805)">
<stop stop-opacity="0"/>
<stop offset="1" stop-color="#4455A4"/>
</radialGradient>
<radialGradient id="paint68_radial_601_2" cx="0" cy="0" r="1" gradientUnits="userSpaceOnUse" gradientTransform="translate(9.00745 197.276) scale(647.399 231.706)">
<stop stop-opacity="0"/>
<stop offset="1" stop-color="#4455A4"/>
</radialGradient>
</defs>
</svg>
