<svg width="1440" height="354" viewBox="0 0 1440 354" fill="none" xmlns="http://www.w3.org/2000/svg">
<path d="M58.001 10.5261C71.0128 14.4949 82.7855 6.55731 92.6993 0.207249C96.4169 -2.17402 113.146 -13.2867 100.754 -14.0804C90.8404 -14.8742 81.5461 -14.0804 71.6323 -12.4929C64.197 -10.9054 53.6636 -10.1115 46.8479 -6.93652C32.5968 -0.58646 49.946 7.35109 57.3813 10.5261H58.001Z" fill="url(#paint0_radial_454_2440)"/>
<path opacity="0.6" d="M67.2948 9.73389C67.2948 9.73389 67.9142 9.73389 68.5339 9.73389C69.1535 9.73389 70.3927 8.9402 71.6319 8.9402C77.828 7.35268 83.4046 3.38389 88.3615 1.00262C93.3184 -1.37865 98.2753 -5.34747 100.754 -9.31626C101.993 -10.11 102.613 -10.9038 101.373 -10.9038C97.6557 -12.4913 92.6987 -11.6976 87.7418 -11.6976C83.4046 -3.75998 76.5889 3.38382 67.2948 9.73389Z" fill="url(#paint1_radial_454_2440)"/>
<path d="M1121.25 15.289C1129.31 20.0516 1137.36 16.0828 1144.18 13.7015C1146.65 12.9078 1158.43 7.35147 1150.99 5.76396C1144.8 4.17645 1139.22 2.58898 1132.4 2.58898C1127.45 2.58898 1120.63 1.79522 1116.29 2.58898C1107 4.17649 1116.91 12.114 1120.63 15.289H1121.25Z" fill="url(#paint2_radial_454_2440)"/>
<path opacity="0.6" d="M1126.83 16.084H1127.45C1128.07 16.084 1128.69 16.084 1129.31 16.084C1133.02 16.084 1137.36 14.4965 1140.46 12.909C1143.56 12.1153 1147.27 9.73397 1149.75 8.14646C1150.37 8.14646 1150.99 7.35266 1150.37 7.35266C1148.51 5.76515 1145.42 5.76525 1141.7 4.9715C1138.6 9.73401 1133.64 12.909 1126.83 16.084Z" fill="url(#paint3_radial_454_2440)"/>
<path d="M466.324 45.4516C470.661 48.6266 476.238 46.2454 481.195 44.6579C483.053 43.8641 491.108 40.689 486.771 39.1014C483.053 38.3077 479.336 37.5139 475.618 37.5139C472.52 37.5139 468.802 36.7202 465.704 37.5139C458.889 38.3077 463.845 43.0703 466.324 45.4516C466.324 44.6578 466.324 44.6578 466.324 45.4516Z" fill="url(#paint4_radial_454_2440)"/>
<path opacity="0.6" d="M470.042 45.4531C470.661 45.4531 471.281 45.4531 471.9 45.4531C474.379 45.4531 476.857 44.6594 479.336 43.8656C481.814 43.0718 484.293 42.2781 485.532 40.6906C486.151 40.6906 486.151 40.6905 486.151 39.8967C484.912 39.103 483.053 38.3092 481.195 38.3092C478.096 41.4843 474.379 43.8656 470.042 45.4531Z" fill="url(#paint5_radial_454_2440)"/>
<path opacity="0.3" d="M18.9656 88.3145C47.4676 83.5519 75.9697 81.1706 103.852 75.6143C130.495 70.0579 157.758 59.7391 181.923 50.214C209.186 39.1013 233.35 27.195 256.276 12.9073C277.962 -0.586605 303.986 -10.9056 324.433 -24.3995C328.151 -25.987 331.248 -27.5745 332.488 -29.9558C333.107 -31.5433 328.77 -30.7495 328.15 -29.162C321.954 -26.7807 315.758 -25.1931 309.562 -22.8119C296.55 -21.2243 284.158 -20.4307 271.766 -16.4619C262.472 -14.0806 254.417 -10.1118 246.362 -6.14299C233.97 -0.586677 221.578 3.3821 207.946 7.35089C207.946 7.35089 207.327 7.35089 207.946 7.35089C216.621 5.76337 225.915 4.96966 235.209 4.1759C237.068 4.1759 238.307 4.17586 239.546 3.3821C213.523 14.4947 185.64 24.8136 155.28 29.5762C154.66 29.5762 153.421 31.1637 154.66 31.1637C175.107 30.3699 194.935 28.7824 214.142 24.0199C199.891 31.1637 185.021 38.3076 169.531 43.8639C128.017 59.7391 80.307 68.4704 36.3148 81.1705C35.6952 81.1705 35.6952 81.9644 36.3148 81.9644C64.8168 76.408 93.3188 71.6454 120.582 65.2954C105.711 70.0579 92.0795 75.6142 75.35 78.7892C56.7618 81.1705 38.1735 84.3457 18.9656 88.3145Z" fill="url(#paint6_radial_454_2440)"/>
<path opacity="0.3" d="M1336.88 9.73242C1389.54 46.2453 1427.96 92.2833 1442.21 142.29H1442.83C1439.73 124.827 1434.15 108.158 1425.48 91.4896C1434.15 102.602 1442.21 114.508 1449.02 126.415H1449.64C1442.83 109.746 1434.77 94.6646 1424.24 80.377C1431.68 88.3146 1438.49 97.0459 1444.69 105.777C1444.69 106.571 1445.93 105.777 1445.93 104.983C1440.35 93.8708 1435.39 82.7582 1427.96 71.6456C1434.15 77.9957 1437.87 85.9332 1444.07 93.077H1444.69C1431.06 74.0268 1426.1 56.5641 1405.65 39.1015C1395.12 29.5764 1373.43 17.67 1357.32 13.7012C1356.7 13.7012 1355.46 14.4949 1356.08 15.2887C1369.71 21.6388 1380.25 30.3701 1390.16 39.1015C1380.87 33.5451 1370.33 27.9889 1360.42 22.4326C1359.8 21.6388 1357.94 23.2263 1359.18 23.2263C1359.8 24.02 1360.42 24.0201 1361.04 24.8139C1352.99 20.0514 1344.93 15.2888 1336.88 10.5262C1337.49 8.93871 1336.26 9.73242 1336.88 9.73242Z" fill="url(#paint7_radial_454_2440)"/>
<path opacity="0.3" d="M1291.02 -95.0433C1310.23 -87.8995 1330.06 -80.7557 1349.89 -73.612C1362.9 -68.8494 1375.91 -65.6743 1388.92 -62.4993C1433.53 -42.6554 1476.29 -21.224 1504.79 10.5262H1505.41C1499.83 1.79487 1493.02 -6.93642 1485.58 -14.874C1496.73 -5.34891 1507.27 4.17614 1517.18 14.495C1517.8 15.2887 1518.42 14.4949 1518.42 13.7012C1506.65 -2.17396 1498.59 -17.2552 1482.48 -30.7491C1491.78 -25.1928 1500.45 -18.8428 1508.51 -12.4928C1509.13 -12.4928 1509.75 -12.4927 1509.75 -13.2865C1493.64 -33.1304 1476.91 -46.6243 1449.64 -60.1181C1420.52 -74.4057 1390.16 -83.9308 1356.08 -89.4871C1354.84 -89.4871 1354.22 -88.6933 1355.46 -88.6933C1384.58 -81.5495 1409.37 -68.8494 1434.77 -56.943C1439.11 -54.5618 1443.45 -52.9742 1447.17 -50.593C1439.11 -52.9742 1430.44 -55.3556 1423 -57.7368C1416.8 -60.1181 1409.99 -63.2931 1403.17 -64.8806C1401.93 -64.8806 1400.69 -65.6744 1400.08 -65.6744C1392.64 -68.0557 1385.2 -71.2306 1377.15 -72.8181C1354.22 -80.7557 1331.3 -89.487 1308.37 -96.6308C1313.95 -92.662 1320.15 -89.487 1326.96 -87.1058C1315.81 -90.2808 1304.66 -93.4558 1293.5 -96.6308C1291.02 -96.6308 1289.78 -95.8371 1291.02 -95.0433Z" fill="url(#paint8_radial_454_2440)"/>
<path opacity="0.3" d="M1396.98 314.536H1397.6C1396.36 301.836 1393.88 289.929 1391.4 278.023C1392.64 281.198 1393.88 283.579 1395.12 286.754C1395.12 287.548 1395.74 286.754 1395.74 286.754C1392.02 265.323 1396.98 245.479 1386.44 224.047C1375.29 201.822 1362.28 179.597 1346.17 158.959C1345.55 158.165 1344.31 158.959 1344.31 158.959C1338.73 150.228 1333.16 141.496 1326.96 133.559C1326.34 132.765 1325.72 133.559 1325.72 134.352C1361.66 189.915 1378.39 251.829 1396.98 314.536Z" fill="url(#paint9_radial_454_2440)"/>
<path opacity="0.3" d="M1177.64 89.9018C1183.21 93.0769 1189.41 95.4581 1194.98 98.6331C1194.98 98.6331 1194.98 98.6332 1194.98 99.4269C1224.73 117.683 1251.37 138.321 1275.53 160.546C1276.15 160.546 1276.77 160.546 1276.15 159.753C1268.72 149.434 1261.28 139.115 1251.99 129.59C1255.71 131.971 1259.42 135.146 1263.14 137.527C1263.76 137.527 1264.38 137.527 1263.76 136.734C1243.93 116.096 1213.57 95.4581 1178.26 87.5205C1178.26 88.3143 1176.4 89.1081 1177.64 89.9018Z" fill="url(#paint10_radial_454_2440)"/>
<path opacity="0.3" d="M1034.51 130.384C1056.19 143.878 1078.5 156.578 1098.95 170.865C1123.11 188.328 1143.56 208.966 1164 228.81C1164.62 229.604 1165.86 228.81 1165.24 228.016C1156.57 216.11 1147.89 204.997 1137.98 193.885C1149.75 202.616 1161.53 211.347 1172.68 220.079C1172.68 220.079 1173.92 220.079 1173.3 219.285C1157.81 203.41 1146.04 187.534 1129.93 172.453C1115.67 158.959 1087.79 147.847 1067.34 139.115C1066.11 138.321 1064.25 139.115 1064.25 140.703C1054.95 136.734 1045.04 132.765 1035.74 128.003C1035.13 128.003 1033.27 129.59 1034.51 130.384Z" fill="url(#paint11_radial_454_2440)"/>
<path opacity="0.3" d="M726.56 66.0892C747.627 66.883 768.074 68.4704 789.14 69.2642C791.619 69.2642 794.097 69.2642 797.195 69.2642C811.446 70.8517 826.317 71.6455 840.568 74.0268C860.395 77.2018 877.745 79.5831 897.572 80.3769C896.952 81.1706 896.333 81.9644 897.572 81.9644C922.976 86.7269 949.619 90.6957 975.643 93.0769C989.894 94.6645 1006.62 94.6645 1020.25 93.0769C1032.65 92.2832 1050 84.3456 1061.77 85.9332C1062.39 85.9332 1062.39 85.1394 1062.39 85.1394C1057.43 84.3456 1054.33 84.3456 1049.38 85.1394C1032.03 87.5206 1015.3 84.3456 997.949 83.5519C966.349 82.7581 935.368 82.7582 903.768 80.3769C921.737 80.3769 939.086 81.9643 957.674 81.1706C980.6 79.583 1001.67 74.0268 1023.97 71.6455C1024.59 71.6455 1024.59 70.8517 1023.97 70.8517C1005.38 70.8517 986.796 73.233 967.588 73.233C947.141 74.0267 927.933 70.058 907.486 70.058C878.364 69.2642 849.243 68.4704 820.121 67.6767C832.513 66.0892 849.242 64.5017 859.156 66.0892C859.776 66.0892 859.776 66.0891 859.776 65.2954C846.144 59.7391 821.36 62.9141 806.489 62.9141C780.466 62.9141 755.062 61.3266 728.419 62.9141C726.56 63.7078 724.081 66.0892 726.56 66.0892Z" fill="url(#paint12_radial_454_2440)"/>
<path opacity="0.3" d="M1081.6 43.0704C1100.18 43.8641 1118.15 45.4517 1137.36 45.4517C1153.47 45.4517 1178.87 50.2143 1191.89 58.1519C1192.51 58.1519 1192.51 58.1518 1192.51 57.358C1179.49 48.6267 1165.86 40.6892 1148.51 36.7204C1128.07 31.9579 1102.04 36.7203 1082.84 39.1016C1080.36 39.8953 1077.88 43.0704 1081.6 43.0704Z" fill="url(#paint13_radial_454_2440)"/>
<path opacity="0.3" d="M292.833 84.3454C324.433 77.2016 354.794 64.5014 387.013 58.1513C387.633 58.1513 388.253 57.3575 387.633 57.3575C351.076 57.3575 321.954 64.5014 291.594 80.3766C289.115 81.9641 288.495 85.1392 292.833 84.3454Z" fill="url(#paint14_radial_454_2440)"/>
<path opacity="0.3" d="M343.022 92.2832C362.229 92.2832 380.818 90.6957 400.026 88.3144C427.288 88.3144 454.551 89.1081 482.434 87.5206C483.673 87.5206 484.292 87.5206 485.532 87.5206C504.12 88.3144 522.708 88.3144 540.677 85.9331C560.504 83.5518 579.712 80.3768 598.92 77.2017C613.791 74.8204 626.183 69.2642 640.434 66.0891C641.054 66.0891 641.054 65.2953 640.434 65.2953C626.803 67.6766 614.41 71.6454 600.159 73.2329C584.05 74.8204 567.32 75.6143 551.21 76.408C548.732 76.408 546.253 76.408 543.775 77.2017C558.026 73.2329 572.277 69.2642 585.908 64.5016C586.528 64.5016 586.528 63.7078 585.908 63.7078C551.21 70.8517 516.512 77.2018 479.955 77.9955C467.563 77.9955 454.551 78.7893 442.159 79.583C450.214 77.2017 458.888 75.6142 466.943 74.8204C466.943 74.8204 467.563 74.0267 466.943 74.0267C448.975 74.0267 429.767 77.2017 411.798 78.7892C387.633 80.3767 367.806 82.758 344.88 89.1081C342.402 89.9019 339.924 92.2832 343.022 92.2832Z" fill="url(#paint15_radial_454_2440)"/>
<path opacity="0.3" d="M-21.9284 209.76C-15.7323 203.41 -10.7755 196.266 -5.81865 189.122C-13.8736 204.203 -18.8304 220.872 -28.1246 235.954H-27.5051C-15.7325 223.254 -6.43826 209.76 3.47555 196.266C15.2482 180.391 18.3464 162.928 27.6406 146.259C28.2602 144.672 26.4012 145.465 25.162 146.259C17.107 155.784 9.05222 165.309 2.85609 175.628C8.4326 165.309 13.3895 155.784 18.3464 146.259C18.966 144.672 15.868 145.465 15.2483 146.259C-8.29695 166.103 -8.91656 187.535 -21.9284 209.76C-21.9284 209.76 -22.548 209.76 -21.9284 209.76Z" fill="url(#paint16_radial_454_2440)"/>
<path opacity="0.3" d="M-26.266 196.266C-17.5915 185.153 -13.2542 173.247 -3.96004 162.134C-7.05808 167.69 -8.91687 173.247 -9.53648 178.009C-9.53648 178.803 -8.29738 178.009 -8.29738 178.009C-4.57973 167.69 2.85557 158.165 10.2909 148.64C18.9654 141.496 28.2596 134.353 36.3145 126.415C37.5537 124.827 35.6948 124.034 34.4556 125.621C18.9653 135.146 5.95357 147.053 -5.81898 158.165C-18.2111 170.866 -20.0699 183.566 -26.8856 197.06C-26.8856 196.266 -26.266 196.266 -26.266 196.266Z" fill="url(#paint17_radial_454_2440)"/>
<path opacity="0.3" d="M479.955 3.38233C517.132 12.1137 556.787 16.0826 596.442 20.0514C610.073 21.6389 623.705 22.4326 637.956 23.2264C660.262 24.8139 681.948 26.4015 703.634 29.5765C721.603 31.9578 740.811 30.3703 759.399 30.3703C778.607 30.3703 797.815 30.3703 816.403 29.5765C853.58 26.4015 890.756 23.2264 927.313 17.6701C927.313 17.6701 927.933 16.8764 927.313 16.8764C895.713 16.0826 862.254 21.639 831.274 24.814C810.827 27.1953 789.14 27.989 766.834 27.989C795.956 25.6077 824.458 21.6389 854.819 20.0514C855.438 20.0514 856.058 19.2576 854.819 19.2576C834.372 18.4638 813.925 20.0514 793.478 20.8452C773.03 20.8452 753.203 19.2577 732.756 18.4639C746.387 16.8764 759.399 15.2888 773.03 14.4951C773.03 14.4951 773.65 13.7013 773.03 13.7013C753.823 13.7013 735.234 16.0825 716.026 15.2888C704.873 15.2888 693.72 15.2888 683.187 15.2888C706.113 13.7012 729.038 10.5262 751.964 8.14495C752.583 8.14495 752.583 7.35114 751.964 7.35114C715.407 10.5262 680.089 12.1137 642.913 11.32C603.258 9.73243 564.222 6.55748 525.187 4.96995C524.567 4.96995 523.948 5.76364 524.567 5.76364C554.928 8.14493 584.05 13.7013 615.03 16.0826C606.975 16.0826 598.92 16.0826 590.246 16.0826C582.191 16.0826 574.136 15.2888 566.081 14.4951C537.579 11.32 509.077 6.55738 480.575 3.38233C479.955 2.58857 479.336 3.38233 479.955 3.38233Z" fill="url(#paint18_radial_454_2440)"/>
<g opacity="0.3">
<path opacity="0.3" d="M24.542 211.347C23.9224 216.903 22.683 222.46 22.683 228.016C20.2046 258.179 19.5849 288.341 15.8673 320.092C23.3026 303.423 33.8361 287.548 41.891 271.673C55.5225 243.891 62.9579 215.316 71.0129 188.328C77.209 168.484 83.405 150.228 101.374 132.765C101.993 131.971 102.613 131.177 103.852 131.177C103.852 131.177 103.852 130.384 104.472 130.384C109.429 125.621 115.005 121.652 119.962 116.89C136.692 102.602 155.9 90.6957 173.249 77.2018C160.857 80.3768 147.845 83.5519 135.452 86.7269C129.256 89.1082 123.06 91.4894 116.864 94.6645C96.4169 104.19 75.35 115.302 59.2401 128.796C41.2713 143.877 36.3145 159.753 32.5968 177.215C30.738 185.153 29.4987 193.884 28.2595 201.822C26.4007 204.203 25.1616 207.378 24.542 211.347Z" fill="url(#paint19_radial_454_2440)"/>
<path opacity="0.3" d="M-98.1408 94.6646C-96.9016 94.6646 -95.6623 94.6646 -94.4231 94.6646C-83.8897 93.077 -67.7799 93.0771 -57.2465 89.9021C-41.1367 84.3457 -26.2661 77.9956 -12.0151 71.6455C-0.862094 67.6767 9.67131 63.7079 19.5851 59.7391C44.3695 49.4203 67.9147 39.1014 91.4599 27.9887C92.0795 27.9887 92.699 27.1949 93.3186 27.1949C105.091 22.4324 116.244 17.6699 126.778 12.9073C131.735 11.3198 136.691 8.93842 141.029 7.3509C157.139 1.00082 172.629 -8.52431 189.358 -16.4619C170.15 -11.6993 151.562 -6.93674 133.593 0.207107C131.734 1.00087 129.256 1.79465 127.397 2.58841C117.483 7.35097 107.57 12.1135 97.0363 16.0823C92.699 17.6698 87.7423 19.2574 83.405 20.8449C64.8167 28.7825 46.8479 35.9264 26.4008 42.2764C-23.168 58.1516 -72.7367 77.2019 -124.164 93.8709C-116.109 93.0771 -107.435 93.8708 -98.1408 94.6646Z" fill="url(#paint20_radial_454_2440)"/>
<path opacity="0.3" d="M248.221 27.1947C241.405 33.5448 234.59 39.1011 227.774 45.4512C298.409 20.8447 378.339 13.7009 455.17 8.93838C444.017 6.5571 428.527 6.55701 418.613 7.35077C415.515 7.35077 412.417 7.35077 409.319 7.35077C401.264 6.55701 393.829 4.96949 385.774 3.38198C364.707 -0.586814 344.88 1.0007 323.194 3.38198C303.986 5.76325 282.919 11.3196 266.19 17.6696C259.374 20.8447 253.797 24.0197 248.221 27.1947Z" fill="url(#paint21_radial_454_2440)"/>
<path opacity="0.3" d="M276.104 69.264C265.57 73.2328 255.657 77.2016 247.602 81.9642C237.688 87.5205 228.394 91.4893 220.958 96.2518C209.186 110.539 196.174 124.827 193.076 139.909C189.358 158.165 193.696 176.421 199.892 194.678C203.609 169.277 209.186 143.877 225.915 121.652C243.884 97.8393 272.386 79.5829 300.888 62.1202C292.833 63.7077 284.159 66.8827 276.104 69.264Z" fill="url(#paint22_radial_454_2440)"/>
<path opacity="0.3" d="M-90.0857 1.7947C-83.27 -2.17408 -76.4543 -6.14282 -69.6386 -9.31785C-68.3994 -10.1116 -67.1602 -10.9054 -66.5406 -11.6991C-60.9641 -15.6679 -53.5288 -17.2555 -45.4739 -18.0492C-42.3758 -18.843 -38.6581 -19.6367 -35.5601 -19.6367C-30.6032 -20.4305 -25.6463 -20.4305 -20.6895 -21.2242C-14.4934 -22.018 -8.29731 -22.8117 -2.72082 -22.8117C-1.4816 -22.8117 -0.861986 -22.8117 0.377234 -22.8117C14.6283 -23.6055 28.8794 -25.193 43.1305 -27.5743C54.2835 -29.1618 64.8167 -31.5431 75.9697 -33.9244C62.9579 -33.1306 49.946 -33.1306 37.5538 -33.9244C27.0205 -34.7181 15.2479 -35.5119 3.47528 -36.3057C-14.4934 -37.8932 -34.9404 -41.862 -52.9091 -36.3057C-70.8778 -31.5431 -86.9876 -21.2242 -99.3798 -11.6991C-108.674 -4.55533 -116.729 4.176 -126.023 12.1136C-130.98 16.0824 -137.796 20.0512 -140.894 24.8137V25.6074C-122.925 17.6698 -105.576 11.3198 -90.0857 1.7947Z" fill="url(#paint23_radial_454_2440)"/>
<path opacity="0.3" d="M1074.78 20.0513C1076.02 20.8451 1077.88 21.6388 1079.74 22.4326C1091.51 27.1952 1104.52 24.8138 1116.91 27.1951C1117.53 27.1951 1118.15 27.1951 1118.77 27.9889C1129.31 28.7826 1139.84 29.5764 1150.99 29.5764C1181.35 31.1639 1208.62 27.9889 1236.5 33.5452C1252.61 42.2765 1268.1 51.8016 1281.73 62.9142C1315.19 92.2832 1352.37 124.827 1376.53 159.753C1376.53 160.546 1377.15 160.546 1377.77 161.34C1386.44 181.184 1396.36 201.028 1405.03 220.872C1413.09 239.922 1414.95 258.972 1416.8 278.816C1422.38 269.291 1427.96 260.56 1432.29 251.035C1432.29 250.241 1432.29 249.447 1432.29 249.447C1435.39 231.191 1437.87 213.728 1439.11 195.472C1439.73 183.565 1437.25 170.865 1431.68 158.959C1426.72 148.64 1421.14 139.115 1414.95 128.796C1406.27 114.508 1398.22 99.4271 1388.3 85.9332C1386.44 86.727 1385.2 88.3145 1386.44 89.902C1395.12 101.015 1395.74 115.302 1401.31 127.209C1408.75 143.878 1408.13 160.546 1410.61 177.215C1411.23 182.772 1412.47 187.534 1413.09 193.091C1403.17 176.422 1390.16 159.753 1378.39 144.671C1376.53 140.703 1374.67 137.528 1372.81 133.559C1367.24 122.446 1361.04 112.127 1353.6 101.808C1343.69 85.9332 1332.54 70.058 1320.77 54.9766C1308.37 39.1015 1288.55 24.02 1264.38 15.2887C1250.75 10.5262 1236.5 8.14491 1222.25 5.76364C1221.63 5.76364 1221.63 5.76364 1221.63 5.76364C1220.39 5.76364 1219.77 5.76364 1218.53 5.76364C1200.56 2.58861 1181.97 0.207381 1164.62 -5.34893C1162.76 -6.14268 1159.67 -3.76146 1161.53 -2.17394C1170.82 2.58861 1180.73 7.35118 1190.03 12.1137C1180.73 12.1137 1172.06 12.9075 1163.38 13.7012C1135.5 15.2887 1104.52 20.8451 1074.78 20.0513Z" fill="url(#paint24_radial_454_2440)"/>
<path opacity="0.3" d="M1093.99 111.333C1061.15 111.333 1027.69 108.952 994.851 105.777C1020.87 116.096 1048.76 124.034 1078.5 125.621C1096.47 123.24 1113.82 116.89 1128.69 112.127C1131.16 111.334 1136.74 108.952 1141.7 105.777C1124.97 108.159 1108.86 111.333 1093.99 111.333Z" fill="url(#paint25_radial_454_2440)"/>
<path opacity="0.3" d="M1305.89 241.51C1311.47 262.941 1313.33 284.373 1315.19 305.804C1317.67 317.711 1319.53 328.823 1319.53 340.73C1320.15 344.698 1321.38 349.461 1322.62 353.43C1327.58 339.142 1335.64 328.823 1336.87 313.742C1338.11 303.423 1338.73 292.31 1335.64 281.991C1336.26 268.498 1334.4 255.797 1327.58 240.716C1317.67 219.284 1296.6 197.853 1277.39 179.597C1289.78 198.647 1299.7 220.078 1305.89 241.51Z" fill="url(#paint26_radial_454_2440)"/>
<path opacity="0.3" d="M754.442 47.8328C758.159 48.6265 761.257 49.4203 764.975 50.2141C788.52 51.0078 811.446 54.1828 835.61 54.9766C853.579 54.9766 870.928 53.3891 887.658 52.5954C909.964 51.8016 933.509 50.214 955.815 47.039C972.544 44.6577 989.274 41.4827 1003.52 35.9264C1011.58 33.5451 1018.4 29.5763 1025.21 25.6075C1017.78 23.2263 1010.96 21.6388 1001.05 22.4325C997.329 22.4325 993.611 23.2263 989.893 24.02C964.489 23.2263 941.564 28.7826 916.779 31.9576C864.112 39.8952 808.967 40.689 755.681 43.864C754.442 45.4515 752.583 47.8328 754.442 47.8328Z" fill="url(#paint27_radial_454_2440)"/>
</g>
<defs>
<radialGradient id="paint0_radial_454_2440" cx="0" cy="0" r="1" gradientUnits="userSpaceOnUse" gradientTransform="translate(168.522 187.422) rotate(-180) scale(283.859 258.607)">
<stop stop-opacity="0"/>
<stop offset="1" stop-color="#4455A4"/>
</radialGradient>
<radialGradient id="paint1_radial_454_2440" cx="0" cy="0" r="1" gradientUnits="userSpaceOnUse" gradientTransform="translate(136.481 156.103) rotate(-180) scale(154.486 215.275)">
<stop stop-opacity="0"/>
<stop offset="1" stop-color="#4455A4"/>
</radialGradient>
<radialGradient id="paint2_radial_454_2440" cx="0" cy="0" r="1" gradientUnits="userSpaceOnUse" gradientTransform="translate(1194.03 120.98) rotate(-180) scale(182.216 152.159)">
<stop stop-opacity="0"/>
<stop offset="1" stop-color="#4455A4"/>
</radialGradient>
<radialGradient id="paint3_radial_454_2440" cx="0" cy="0" r="1" gradientUnits="userSpaceOnUse" gradientTransform="translate(1174.21 91.282) rotate(-180) scale(105.802 110.599)">
<stop stop-opacity="0"/>
<stop offset="1" stop-color="#4455A4"/>
</radialGradient>
<radialGradient id="paint4_radial_454_2440" cx="0" cy="0" r="1" gradientUnits="userSpaceOnUse" gradientTransform="translate(513.582 113.708) rotate(-180) scale(114.616 98.0883)">
<stop stop-opacity="0"/>
<stop offset="1" stop-color="#4455A4"/>
</radialGradient>
<radialGradient id="paint5_radial_454_2440" cx="0" cy="0" r="1" gradientUnits="userSpaceOnUse" gradientTransform="translate(502.112 93.7959) rotate(-180) scale(71.6095 71.1012)">
<stop stop-opacity="0"/>
<stop offset="1" stop-color="#4455A4"/>
</radialGradient>
<radialGradient id="paint6_radial_454_2440" cx="0" cy="0" r="1" gradientUnits="userSpaceOnUse" gradientTransform="translate(643.224 894.503) rotate(-180) scale(1393.91 1185.72)">
<stop stop-opacity="0"/>
<stop offset="1" stop-color="#4455A4"/>
</radialGradient>
<radialGradient id="paint7_radial_454_2440" cx="0" cy="0" r="1" gradientUnits="userSpaceOnUse" gradientTransform="translate(1561.55 1040.65) rotate(180) scale(502.067 1321.28)">
<stop stop-opacity="0"/>
<stop offset="1" stop-color="#4455A4"/>
</radialGradient>
<radialGradient id="paint8_radial_454_2440" cx="0" cy="0" r="1" gradientUnits="userSpaceOnUse" gradientTransform="translate(1744.19 769.035) rotate(-180) scale(1012.97 1109.27)">
<stop stop-opacity="0"/>
<stop offset="1" stop-color="#4455A4"/>
</radialGradient>
<radialGradient id="paint9_radial_454_2440" cx="0" cy="0" r="1" gradientUnits="userSpaceOnUse" gradientTransform="translate(1468.81 1541.43) rotate(-180) scale(319.492 1804.48)">
<stop stop-opacity="0"/>
<stop offset="1" stop-color="#4455A4"/>
</radialGradient>
<radialGradient id="paint10_radial_454_2440" cx="0" cy="0" r="1" gradientUnits="userSpaceOnUse" gradientTransform="translate(1374.69 654.711) rotate(-180) scale(440.959 726.804)">
<stop stop-opacity="0"/>
<stop offset="1" stop-color="#4455A4"/>
</radialGradient>
<radialGradient id="paint11_radial_454_2440" cx="0" cy="0" r="1" gradientUnits="userSpaceOnUse" gradientTransform="translate(1311.56 913.525) rotate(-180) scale(619.574 1006.58)">
<stop stop-opacity="0"/>
<stop offset="1" stop-color="#4455A4"/>
</radialGradient>
<radialGradient id="paint12_radial_454_2440" cx="0" cy="0" r="1" gradientUnits="userSpaceOnUse" gradientTransform="translate(1396.14 312.548) rotate(-180) scale(1497.43 321.04)">
<stop stop-opacity="0"/>
<stop offset="1" stop-color="#4455A4"/>
</radialGradient>
<radialGradient id="paint13_radial_454_2440" cx="0" cy="0" r="1" gradientUnits="userSpaceOnUse" gradientTransform="translate(1304.27 216.968) rotate(-180) scale(501.436 233.582)">
<stop stop-opacity="0"/>
<stop offset="1" stop-color="#4455A4"/>
</radialGradient>
<radialGradient id="paint14_radial_454_2440" cx="0" cy="0" r="1" gradientUnits="userSpaceOnUse" gradientTransform="translate(485.217 267.945) rotate(-180) scale(436.679 269.849)">
<stop stop-opacity="0"/>
<stop offset="1" stop-color="#4455A4"/>
</radialGradient>
<radialGradient id="paint15_radial_454_2440" cx="0" cy="0" r="1" gradientUnits="userSpaceOnUse" gradientTransform="translate(937.448 285.652) rotate(-180) scale(1330.53 284.402)">
<stop stop-opacity="0"/>
<stop offset="1" stop-color="#4455A4"/>
</radialGradient>
<radialGradient id="paint16_radial_454_2440" cx="0" cy="0" r="1" gradientUnits="userSpaceOnUse" gradientTransform="translate(83.134 849.117) rotate(180) scale(248.43 901.824)">
<stop stop-opacity="0"/>
<stop offset="1" stop-color="#4455A4"/>
</radialGradient>
<radialGradient id="paint17_radial_454_2440" cx="0" cy="0" r="1" gradientUnits="userSpaceOnUse" gradientTransform="translate(99.7424 686.337) rotate(180) scale(282.749 719.616)">
<stop stop-opacity="0"/>
<stop offset="1" stop-color="#4455A4"/>
</radialGradient>
<radialGradient id="paint18_radial_454_2440" cx="0" cy="0" r="1" gradientUnits="userSpaceOnUse" gradientTransform="translate(1371.33 219.411) rotate(-180) scale(1990.92 277.273)">
<stop stop-opacity="0"/>
<stop offset="1" stop-color="#4455A4"/>
</radialGradient>
<radialGradient id="paint19_radial_454_2440" cx="0" cy="0" r="1" gradientUnits="userSpaceOnUse" gradientTransform="translate(329.172 1963.72) rotate(-180) scale(699.58 2417.41)">
<stop stop-opacity="0"/>
<stop offset="1" stop-color="#4455A4"/>
</radialGradient>
<radialGradient id="paint20_radial_454_2440" cx="0" cy="0" r="1" gradientUnits="userSpaceOnUse" gradientTransform="translate(499.975 846.656) rotate(-180) scale(1393.65 1106.01)">
<stop stop-opacity="0"/>
<stop offset="1" stop-color="#4455A4"/>
</radialGradient>
<radialGradient id="paint21_radial_454_2440" cx="0" cy="0" r="1" gradientUnits="userSpaceOnUse" gradientTransform="translate(680.46 346.491) rotate(-180) scale(1010.81 442.762)">
<stop stop-opacity="0"/>
<stop offset="1" stop-color="#4455A4"/>
</radialGradient>
<radialGradient id="paint22_radial_454_2440" cx="0" cy="0" r="1" gradientUnits="userSpaceOnUse" gradientTransform="translate(409.064 1091.69) rotate(-180) scale(485.352 1319.3)">
<stop stop-opacity="0"/>
<stop offset="1" stop-color="#4455A4"/>
</radialGradient>
<radialGradient id="paint23_radial_454_2440" cx="0" cy="0" r="1" gradientUnits="userSpaceOnUse" gradientTransform="translate(290.823 463.936) rotate(-180) scale(963.985 644.681)">
<stop stop-opacity="0"/>
<stop offset="1" stop-color="#4455A4"/>
</radialGradient>
<radialGradient id="paint24_radial_454_2440" cx="0" cy="0" r="1" gradientUnits="userSpaceOnUse" gradientTransform="translate(1800.25 2202.83) rotate(180) scale(1619.91 2829.78)">
<stop stop-opacity="0"/>
<stop offset="1" stop-color="#4455A4"/>
</radialGradient>
<radialGradient id="paint25_radial_454_2440" cx="0" cy="0" r="1" gradientUnits="userSpaceOnUse" gradientTransform="translate(1287.18 259.904) rotate(-180) scale(652.755 197.5)">
<stop stop-opacity="0"/>
<stop offset="1" stop-color="#4455A4"/>
</radialGradient>
<radialGradient id="paint26_radial_454_2440" cx="0" cy="0" r="1" gradientUnits="userSpaceOnUse" gradientTransform="translate(1397.83 1529.76) rotate(180) scale(268.921 1730.11)">
<stop stop-opacity="0"/>
<stop offset="1" stop-color="#4455A4"/>
</radialGradient>
<radialGradient id="paint27_radial_454_2440" cx="0" cy="0" r="1" gradientUnits="userSpaceOnUse" gradientTransform="translate(1294.25 276.599) rotate(-180) scale(1207.1 325.956)">
<stop stop-opacity="0"/>
<stop offset="1" stop-color="#4455A4"/>
</radialGradient>
</defs>
</svg>